<?xml version="1.0" encoding="utf-8"?>
<!-- Generator: Adobe Illustrator 14.0.0, SVG Export Plug-In  -->
<!DOCTYPE svg PUBLIC "-//W3C//DTD SVG 1.1//EN" "http://www.w3.org/Graphics/SVG/1.1/DTD/svg11.dtd" [
	<!ENTITY ns_flows "http://ns.adobe.com/Flows/1.0/">
]>
<svg version="1.1"
	 xmlns="http://www.w3.org/2000/svg" xmlns:xlink="http://www.w3.org/1999/xlink" xmlns:a="http://ns.adobe.com/AdobeSVGViewerExtensions/3.0/"
	 x="0px" y="0px" width="1409px" height="1158px" viewBox="-189.033 -33.273 1409 1158"
	 enable-background="new -189.033 -33.273 1409 1158" xml:space="preserve">
<defs>
</defs>
<path fill-rule="evenodd" clip-rule="evenodd" d="M532.888,41.227c4.748,1.739-2.777,5.14-4.457,6.24c0-1.189,0-2.377,0-3.565
	C529.04,42.133,533.741,44.457,532.888,41.227z"/>
<path fill-rule="evenodd" clip-rule="evenodd" d="M640.745,54.597c-0.119-6.679,8.633-10.535,16.936-11.588
	c-7.096,4.196-14.293,8.288-18.719,15.153c-1.463,0.146-1.463-5.495,0-5.348C640.478,52.486,640.644,53.509,640.745,54.597z"/>
<path fill-rule="evenodd" clip-rule="evenodd" d="M424.142,45.684c-0.232,4.168,1.058,1.244,3.565,2.674c0,1.188,0,2.376,0,3.565
	c0.717-0.472,1.447-0.931,2.674-0.891c-0.169,0.721-0.895,0.889-0.892,1.783c1.599,0.113,1.88-1.092,3.565-0.892
	c-0.389,1.096-1.141,1.831-2.674,1.783c4.511,0.241,5.654,3.853,10.696,3.565c-1.949,4.064,0.967,6.341,2.674,7.131
	c-2.036,1.583-4.721,1.88-7.131,0.892c-0.15-1.934,3.162-0.404,4.457-0.892c-2.552-0.683-6.565-3.384-2.674-5.348
	c-0.664-2.011-5-0.349-7.131-0.892c-4.43-5.993-7.542-6.473-11.588-9.805C420.301,46.597,422.063,45.981,424.142,45.684z"/>
<path fill-rule="evenodd" clip-rule="evenodd" d="M683.53,56.38c-6.641-2.367-11.107-4.983-16.936-6.239
	c3.529-1.793,5.871-1.244,6.238-1.783c2.615-3.831-0.654,1.104,6.24-0.891C681.114,53.34,682.302,50.152,683.53,56.38z"/>
<path fill-rule="evenodd" clip-rule="evenodd" d="M655.007,51.032c1.609,1.527-0.273,3.504-2.676,3.565
	C652.708,52.893,652.655,50.76,655.007,51.032z"/>
<path fill-rule="evenodd" clip-rule="evenodd" d="M408.097,53.706c2.727-0.647,2.623,1.538,5.349,0.891
	c0.074,1.411-0.429,3.4,0.891,3.565C411.97,60.47,409.071,55.748,408.097,53.706z"/>
<path fill-rule="evenodd" clip-rule="evenodd" d="M684.421,55.489c3.246-0.572,1.102,4.246,3.566,4.457
	c-0.221,0.968-1.773,0.604-1.783,1.783C683.651,60.421,685.206,59.367,684.421,55.489z"/>
<path fill-rule="evenodd" clip-rule="evenodd" d="M648.767,57.271c-2.633,0.932-1.705,5.426-5.348,5.348
	C645.001,60.638,645.038,57.108,648.767,57.271z"/>
<path fill-rule="evenodd" clip-rule="evenodd" d="M442.861,66.185c-2.583,2.569,1.736,2.788,0.892,6.24
	c-3.514-0.246-2.726,3.811-6.24,3.565C434.623,72.264,437.123,66.295,442.861,66.185z"/>
<path fill-rule="evenodd" clip-rule="evenodd" d="M637.179,68.859c0.891,0,1.783,0,2.674,0c0.377,1.862-0.611,2.359-0.891,3.565
	C637.394,72.21,636.931,70.891,637.179,68.859z"/>
<path fill-rule="evenodd" clip-rule="evenodd" d="M562.304,78.664c0.891,0,1.783,0,2.674,0c1.143,3.519-2.598,2.157-2.674,4.457
	C559.69,82.365,562.837,80.251,562.304,78.664z"/>
<path fill-rule="evenodd" clip-rule="evenodd" d="M441.078,83.121c2.225,1.429-0.613,5.26-2.674,5.348
	C437.629,85.021,440.581,85.298,441.078,83.121z"/>
<path fill-rule="evenodd" clip-rule="evenodd" d="M708.489,84.903c4.584,0.477,2.598,3.475,3.564,6.24
	c-1.699,1.673-1.613-0.529-4.457,0C709.739,89.088,708.956,88.269,708.489,84.903z"/>
<path fill-rule="evenodd" clip-rule="evenodd" d="M564.978,87.578c2.508,0.166,3.799,1.55,3.566,4.457
	c-2.6,2.46-5.271,0.206-6.24,0.892C559.353,90.771,566.134,90.883,564.978,87.578z"/>
<path fill-rule="evenodd" clip-rule="evenodd" d="M289.546,92.034c-3.534-0.329-8.542,0.816-10.697-0.891
	C281.953,88.598,289.099,89.637,289.546,92.034z"/>
<path fill-rule="evenodd" clip-rule="evenodd" d="M530.214,92.926c2.068-0.285,3.422,0.143,4.457,0.892
	C533.88,95.757,529.694,96.54,530.214,92.926z"/>
<path fill-rule="evenodd" clip-rule="evenodd" d="M544.476,96.491c-0.156,2.813-0.625,5.316-3.564,5.348
	C538.876,99.543,541.796,96.796,544.476,96.491z"/>
<path fill-rule="evenodd" clip-rule="evenodd" d="M565.87,100.948c-1.9,5.3-6.758,11.156-13.371,8.914
	C556.231,106.167,561.646,104.152,565.87,100.948z"/>
<path fill-rule="evenodd" clip-rule="evenodd" d="M762.86,107.188c8.291,0.971,17.678-1.778,23.176,5.349
	c-1.551,2.331-6.814,0.572-8.912-2.674c-4.295,3.366-9.756-2.974-13.371,2.674C761.31,112.518,761.636,108.331,762.86,107.188z"/>
<path fill-rule="evenodd" clip-rule="evenodd" d="M274.392,140.168c2.128,0.858,3.462,5.19,1.783,7.131c-3.514-1.5-2.726-1.5-6.24,0
	c-1.291-3.37,2.449-1.71,1.783-4.457c0.968,0.22,0.604,1.772,1.783,1.783C275.939,143.814,271.919,141.502,274.392,140.168z"/>
<path fill-rule="evenodd" clip-rule="evenodd" d="M252.108,160.67c2.681-0.898,1.58,1.985,1.783,3.565
	c1.773-0.834,4.244-2.901,6.239-0.892c-0.982,3.08-5.982,3.128-8.913,1.783C250.48,162.607,252.473,162.817,252.108,160.67z"/>
<path fill-rule="evenodd" clip-rule="evenodd" d="M395.618,166.909c0,1.188,0,2.376,0,3.565c-3.451-1.855-1.456,1.328-5.348,0.892
	C391.02,168.848,392.751,167.311,395.618,166.909z"/>
<path fill-rule="evenodd" clip-rule="evenodd" d="M146.927,227.522c2.751,2.894,5.461,5.829,7.131,9.805c-1.783,0-3.565,0-5.348,0
	c1.941-2.863,1.5-3.067-1.783-4.457c-2.298,0.214,1.224,1.534,0,3.565C142.303,233.506,146.429,231.701,146.927,227.522z"/>
<path fill-rule="evenodd" clip-rule="evenodd" d="M1006.007,543.958c2.924-0.141,4.275,3.64,2.674,5.348
	c-1.854-0.498-1.889-1.391-0.893-2.674C1007.21,545.726,1005.739,545.71,1006.007,543.958z"/>
<path fill-rule="evenodd" clip-rule="evenodd" d="M909.937,717.774c2.895,0.077,0.629,5.314,4.457,4.457
	c-0.473,0.717-0.93,1.446-0.891,2.674c-1.486,0-2.971,0-4.457,0c-0.328-1.517,0.695-1.682,1.783-1.783
	C909.802,722.068,909.819,719.972,909.937,717.774z"/>
<path fill-rule="evenodd" clip-rule="evenodd" d="M912.61,729.362c1.486,0,2.971,0,4.457,0c0.834,3.325,4.23,4.088,4.457,8.022
	c4.469,2.958,12.553,2.303,13.371,8.912C928.222,745.961,915.739,738.873,912.61,729.362z"/>
<path fill-rule="evenodd" clip-rule="evenodd" d="M199.518,801.562c1.485,0,2.971,0,4.457,0c1.239,5.26-2.42,5.135,2.674,7.131
	c-0.586,1.195-1.905,1.66-3.565,1.783c-0.972-3.547-2.252-1.253-4.457-3.566C199.653,805.857,199.635,803.76,199.518,801.562z"/>
<path fill-rule="evenodd" clip-rule="evenodd" d="M371.433,906.417c1.657,3.176,2.049,12.722-3.565,11.588
	C367.405,912.492,369.311,909.347,371.433,906.417z"/>
<path fill-rule="evenodd" clip-rule="evenodd" d="M366.976,947.421c-1.167,2.693-3.999,3.726-8.022,3.565
	C361.065,947.402,362.931,949.07,366.976,947.421z"/>
<path fill-rule="evenodd" clip-rule="evenodd" d="M556.956,4.68c7.1,6.276,6.002,13.005,11.588,17.828
	c0.723-0.169,0.887-0.895,1.781-0.892c0.426-6.152-0.113-14.311,0.893-19.61c7.686,12.42,6.883,25.667,5.348,39.221
	c1.09,2.717,3.402-1.303,4.457,0.892c-4.74,3.629,7.771,7.467,5.348,11.588c2.436-1.324,9.162,7.001,1.783,8.022
	c0.822,2.722,1.943,9.739-1.783,8.914c0.379,1.7,2.547,1.613,1.783,4.457c-2.307,1.454-3.453,1.88-1.783,6.239
	c-2.621-0.72-4.166-6.669-0.891-8.022c-5.543-1.665-10.156,5.281-13.371,8.914c-4.059-4.28-0.803-11.03,1.783-15.153
	c3.035,0.695-0.166,4.91,2.674,7.131c1.732-2.774,7.172-8.328,6.24-14.262c-9.535-5.114-7.607-13.047-17.828-15.153
	c0.668-11.467-10.912-5.17-13.371-13.371c-10.973-1.129-16.205-2.242-28.523-1.783c-3.902,3.526-10.447,4.408-14.262,8.022
	c0.701,3.078-0.832,3.92-2.674,4.457c0.58,0.906,2.049,0.922,1.783,2.674c-3.693,0.169-4.121,3.605-6.24,5.349
	c-10.58-11.41,9.365-20.708,18.719-25.85c-0.221-0.968-1.771-0.605-1.781-1.783c3.973-11.428,12.619-24.374,22.283-22.284
	c9.893,8.364-2.268,15.781,0.891,24.067c12.148-1.626,3.721-14.858,9.805-20.501C556.378,1.729,553.687,8.114,556.956,4.68z
	 M523.083,25.182c5.004-0.101,2.064-2.636,5.348-4.457c-1.332-0.152-3.289,0.319-3.564-0.892c2.381,0.004,1.936-2.817,4.457-2.674
	c2.33,0.641,2.732,3.209,5.348,3.565c1.615-7.991,6.756-11.761,4.457-17.828c-2.094,2.1-5.682,6.34-8.023,5.348
	C530.507,15.676,521.579,18.504,523.083,25.182z M554.282,11.812c-2.641,3.745,1.713,6.83,1.781,10.696
	c2.941,0.784,5.566-2.291,3.566,0.892c1.66-0.123,2.979-0.587,3.564-1.783c-1.852-0.499-1.889-1.39-0.891-2.674
	c-1.533-0.352-2.285,1.323-2.674,0c1.555-1.817-0.664-1.748,0.891-3.565C556.06,18.004,560.169,11.456,554.282,11.812z"/>
<path fill-rule="evenodd" clip-rule="evenodd" d="M382.248,67.076c1.011-0.169,0.495-0.895,0-0.891
	c0.707-2.359,4.19,1.995,4.457-1.783c1.983,4.386-6.703,4.161-8.914,8.914c-0.387,3.909,2.731,2.927,0.892,6.239
	c-1.045-0.144-0.752-1.625-0.892-2.673c-2.276,2.918-1.236,5.695,0,7.13c-0.144,1.045-1.625,0.752-2.674,0.891
	c0.497,1.818,2.682,1.748,0.891,3.565c2.674,0,5.348,0,8.022,0c0.25,2.332-0.326,3.833-2.674,3.565
	c0.792,1.988,5.197,8.509,4.457,6.24c1.496-2.639,2.579,3.414-0.891,2.674c-2.397,0.614-1.723-1.843-2.674-2.674
	c-3.272-0.003-3.416,3.121-5.348,4.457c-2.702,0.095-2.504-4.642-5.348-1.783c-2.753-0.896,2.559-0.844,1.783-2.674
	c-3.485-2.706-9.165-6.739-12.479-4.457c-0.143-2.817-0.031-5.379,1.783-6.24c-0.134-1.648-3.019-0.547-3.565-1.783
	c0.797-2.935-0.218-4.962,3.565-6.24c0.347-21.562,14.28-38.375,35.655-39.22c-9.499,4.169-17.177,10.158-23.175,17.828
	c3.244,2.298,8.142-0.243,9.805-4.457c2.655,2.669,2.274-2.25,6.239-0.892c-0.544,0.831-2.074,3.288,0.892,2.674
	C389.609,59.733,381.196,62.252,382.248,67.076z"/>
<path fill-rule="evenodd" clip-rule="evenodd" d="M523.083,40.335c1.988,0.131-1.156,2.246,0,4.457
	c-5.369,0.274-5.098,6.191-9.805,7.131c1.873,2.171-1.412,4.585,1.783,4.457c-0.475,2.498-4.295,1.647-6.24,2.674
	c4.906,0.872,0.535,2.579-3.564,2.674c-0.289-5.415,5.262-7.457,3.564-11.587C513.835,47.132,517.251,42.524,523.083,40.335z"/>
<path fill-rule="evenodd" clip-rule="evenodd" d="M400.075,51.032c1.835,1.486-0.585,6.444-6.24,5.348
	c0.351-2.918,4.715-1.822,3.565-6.239C398.685,49.664,399.576,53.613,400.075,51.032z"/>
<path fill-rule="evenodd" clip-rule="evenodd" d="M512.388,62.62c3.424,0.306,2.861,1.88,7.131,2.674c0,1.188,0,2.376,0,3.565
	c-1.516,0.327-1.682-0.696-1.783-1.783c-3.301,2.429-6.684-1.224-7.131-4.457c2.744,0.664,1.713-2.447,4.457-1.783
	c-1.07-1.171-0.348-1.403,0-2.674c1.209,0.276,0.74,2.232,0.891,3.565C515.159,62.42,513.938,62.687,512.388,62.62z"/>
<path fill-rule="evenodd" clip-rule="evenodd" d="M515.062,76.882c1.012,0.168,0.494,0.893,0,0.891
	c0.025,0.867,1.09,0.691,1.783,0.891c-2.812,2.171-8.641-0.24-8.914-3.565C512.39,73.076,512.265,80.193,515.062,76.882z"/>
<path fill-rule="evenodd" clip-rule="evenodd" d="M696.009,77.773c1.41-0.075,3.4,0.428,3.566-0.891
	c1.455,3.275,6.229,2.425,9.805,5.348C708.333,83.815,698.448,80.553,696.009,77.773z"/>
<path fill-rule="evenodd" clip-rule="evenodd" d="M522.192,84.903c-2.035,2.879,1.367,6.305,0,10.697
	c2.928-2.193,5.795,1.101,5.348-1.783c2.098,1.505,1.381,7.847-2.674,6.239c-1.385-3.168,3.027-0.538,2.674-2.674
	c-0.145-1.044-1.625-0.752-2.674-0.892c-1.209,0.276-0.74,2.232-0.891,3.565c-2.816-0.803-3.914-2.687-7.131-0.891
	c1.365-3.315,2.182-2.499-1.783-1.783c0.631-0.658,2.221-4.364-0.893-3.565c2.246-2.635,2.508-2.618,1.783-7.131
	c-2.477,2.278-5.625,3.883-8.021,6.24c-1.305-0.775-2.826-1.334-2.674-3.565c6.693-2.797,12.148-4.165,13.371-10.696
	c2.969,0,5.941,0,8.912,0c0.002,2.973-2.9,3.042-2.674,6.239C523.343,84.716,522.558,86.423,522.192,84.903z"/>
<path fill-rule="evenodd" clip-rule="evenodd" d="M244.086,111.645c-0.888-15.438,14.8-19.202,25.85-24.067
	c0.325,2.052,3.902,0.852,3.565,3.565c-2.333-2.582-6.331,2.525-7.131-0.892c-1.73,2.925-10.207,7.763-13.37,8.914
	c-5.488,8.477-9.831,18.099-15.153,26.741C239.297,122.521,237.496,114.597,244.086,111.645z"/>
<path fill-rule="evenodd" clip-rule="evenodd" d="M778.312,106.594c-18.414-3.68-29.18,7.567-22.285,18.719
	c-0.721,0.169-0.889,0.894-1.781,0.892c-0.596,0-1.189,0-1.783,0c-9.566-23.648,18.678-30.169,31.197-20.502
	c4.836-4.644,9.184,2.46,13.371-1.783c-1.658,4.036,3.205,1.549,3.564,3.565c-2.383,2.833-14.34-2.872-16.936,3.566
	c-2.213,1.159-3.699-2.616-4.457,0c-0.164,0.758,0.348,0.841,0.893,0.891C777.403,113.77,779.733,108.614,778.312,106.594z"/>
<path fill-rule="evenodd" clip-rule="evenodd" d="M288.654,138.385c-0.024-0.867-1.091-0.691-1.783-0.891
	c8.374-1.431,11.094-8.517,16.045-13.37c-3.443-1.661,1.786-5.278,2.674-8.022c0.399-2.725-7.455-6.547-1.783-6.24
	c-3.227-0.08-6.413-4.826-3.565-8.022c-4.141-2.528-9.172-6.853-10.696-7.131c-1.983-1.469,2.488-3.989,4.457-4.457
	c1.708,3.343,5.073,5.029,8.022,7.131c7.809-3.661,22.381,1.337,22.284,8.022c3.883-1.762,3.379,6.272,2.674,12.479
	c2.755,5.596,6.976,7.613,12.479,13.371c-2.468,2.731-2.097,3.081-3.565,7.13c2.332,0.251,3.834-0.325,3.565-2.674
	c-0.242,8.036-7.359,18.57-15.153,21.393c1.423,2.594-6.139,10.081-12.479,10.697c1.375-3.221,1.821-5.922,0-8.022
	c7.605,2.733,28.105-19.045,20.501-29.415c0.653-0.832,1.621-1.351,2.674-1.783c-2.036-1.977-5.084,2.596-8.914,1.783
	c0.145-1.045,1.625-0.752,2.674-0.891c0.679-4.542-3.22-4.505-4.457-7.131c-0.646,2.956-1.727,8.419-4.457,8.022
	c4.15,8.105-6.422,13.478-11.587,17.827c1.224,2.298,5.461,0.198,7.131,0c-1.13,2.733-3.035,4.69-4.457,7.131
	c0.21,2.463,5.029,0.32,4.457,3.565c-2.71,0.036-5.867,0.518-5.348-2.674c-8.976,6.474-17.012,13.889-31.198,15.153
	c0.715-3.687-3.238-2.706-2.674-6.24c-5.197,0.529-10.986,6.653-16.045,1.783c0.692-0.792,0.958-2.013,0.891-3.565
	c10.073,1.956,15.13-11.521,25.85-14.262c0.895,2.976-1.237,2.922-3.565,2.674c0.189,4.387-1.727,8.738-2.674,14.262
	c0.867-0.024,0.692-1.091,0.892-1.783c12.192,1.477,16.141-12.153,28.524-13.371c-5.84-5.229-12.609,2.582-17.828,1.783
	c0.276-1.21,2.232-0.74,3.565-0.892c-0.363-1.717-3.456-0.704-2.674-3.565c5.325-1.703,9.187-4.075,9.805-7.131
	c7.023,1.242,13.173-5.111,14.262-9.805c-0.169-0.723-0.895-0.889-0.891-1.783c-5.768-3.735-14.596,1.838-16.045,8.022
	c-1.196-4.584-3.48,2.769-6.24,4.457c-4.659,2.848-11.153,0.799-13.371,5.348c-4.672-2.785,1.25-6.705-4.457-8.914
	c3.608-1.231,2.819,1.935,5.348,1.783c1.131-0.637,0.212-5.194,1.783-0.891C287.87,138.031,283.409,135.898,288.654,138.385z
	 M318.96,108.079c1.088-0.101,2.111-0.267,1.783-1.783c-0.515-2.16-3.366-1.982-5.348-2.674c1.268,2.739,0.399,4.009-0.892,6.24
	c4.214,0.303,0.128,3.377,3.566,4.457c1.242-1.117,0.387-5.04,2.673-2.674c-0.13-1.185,2.998-3.317,0.892-3.565
	C321.622,109.248,319.163,109.214,318.96,108.079z"/>
<path fill-rule="evenodd" clip-rule="evenodd" d="M438.404,90.251c1.291,0.217-0.828,4.436-3.566,3.566
	C433.9,90.502,437.845,92.069,438.404,90.251z"/>
<path fill-rule="evenodd" clip-rule="evenodd" d="M770.288,142.248c-0.389-1.323-1.139,0.352-2.674,0
	c0.381-1.7,2.547-1.613,1.783-4.456c1.287,1.062,1.352,4.39,2.674,0.891c2.418,1.342-1.418,3.844-1.783,5.348
	c0.494,3.072,4.965,2.166,4.457,6.24c3.443-0.352,7.957-0.546,10.697,2.674c-2.699,2.055-6.982,2.523-10.697,3.565
	c1.389,3.663,5.766,4.338,7.131,8.022c5.6-1.976,11.621-0.354,20.502-0.891c0.613,2.965-1.842,1.436-2.674,0.891
	c-0.377,1.863,0.611,2.36,0.891,3.566c1.637-1.041,3.02-2.331,4.457-3.566c0.328-1.516-0.695-1.681-1.781-1.782
	c3.342-1.116,6.537-2.377,9.805-3.566c0.961-10.148,6.943-13.396,9.805-23.175c-6.666-6.104-8.086-23.583-21.393-25.85
	c3.645-6.889,9.643,3.679,16.045,4.457c1.822,5.605,4.545,10.311,8.021,14.262c3.711,23.112-4.215,27.149-15.152,40.111
	c-2.1,0.02-2.625-1.536-5.35-0.891c-2.789,1.146-0.459,1.843-1.781,4.457c5.898,4.041,11.539-2.069,16.936,2.674
	c9.754-2.74,7.875-17.183,8.914-24.067c3.533,1.738,2.91,5.527,0.891,8.022c1.037,0.145,1.586-0.196,1.783-0.891
	c1.496,1.971,1.328,7.837-0.893,7.131c2.209,12.797-8.293,11.901-18.719,12.479c-6.703,0.372-12.816,2.749-16.043,1.783
	c-3.004-0.9-7.523-6.636-14.264-4.457c0.568-4.614-1.844-1.328-4.457-1.783c0-0.892,0-1.783,0-2.674
	c-11.709-2.433-9.439-13.376-19.609-16.936c1.797-7.862-3.875-15.643-2.674-25.849c1.697,1.67,2.238,0.097,4.457,0
	C762.001,134.858,762.278,143.531,770.288,142.248z"/>
<path fill-rule="evenodd" clip-rule="evenodd" d="M373.334,112.536c2.907-1.342,4.479-4.522,6.239-8.914c1.486,0,2.971,0,4.457,0
	c-2.657,11.08-9.493,22.692-7.131,35.655c4.15-0.425,4.923-0.255,9.805-0.892c-0.417-4.233-2.502-9.833,2.674-10.696
	c-1.387-4.399-0.379-10.809,4.457-13.371c-2.668,3.793,0.32,3.464,0.891,8.022c-5.874,3.633-4.503,14.512-5.348,23.175
	c-4.876,3.152-8.417,11.368-8.022,16.937c-1.687,0.419-4.381,1.612-7.131,0c-0.737-2.519,1.256-2.31,0.892-4.457
	c-4.495,3.58-3.825-2.816-8.022-1.783c0.172-4.749,1.489-6.667-1.783-8.914c0.988-2.574,7.258-8.381,2.674-10.696
	C371.211,134.076,373.864,117.585,373.334,112.536z M376.9,158.887c2.365-2.686,1.538-8.563,5.348-9.805
	c-0.354-4.617-4.217-5.325,0-7.131c-2.52,0.737-2.31-1.255-4.457-0.891C373.566,145.639,372.267,154.125,376.9,158.887z"/>
<path fill-rule="evenodd" clip-rule="evenodd" d="M239.629,130.363c0.482-1.145,7.154,2.252,4.457,4.457c2.377,0,4.754,0,7.131,0
	c-3.011,5.004,4.423,7.474,7.131,6.24c1.114,1.856,2.183,3.759,3.565,5.348c2.61-0.801,2.739-0.801,5.348,0
	c-1.564,3.153,2.994,4.592,0.892,5.348c-2.234,0.153-2.164-1.996-3.565-2.674c-2.171,4.971-15.156,3.844-13.37,9.805
	c-0.807,2.416-3.281-0.75-3.566-1.783c-0.242-3.807,3.254-3.877,4.457-6.239c-0.196-3.37-2.802-4.329-3.565-7.131
	C242.418,143.568,243.286,135.233,239.629,130.363z"/>
<path fill-rule="evenodd" clip-rule="evenodd" d="M173.569,221.877c4.487,0.869,1.309-5.625,1.783-10.696
	c-3.228-1.094-3.392-1.863-3.565-4.457c-5.677,1.2-9.699,0.256-15.153,2.674c-13.573-16.557-50.507,2.885-41.003,25.85
	c-1.438,1.023-2.823,3.499-4.457,1.783c4.23-2.36-2.983-3.348-4.457-5.349c-0.086-6.044,8.205-17.642,7.131-21.393
	c0.499-1.852,1.39-1.888,2.673-0.891c2.578-2.92,6.101-9.016,12.479-10.696c2.952-3.206,7.618-6.859,13.371-6.239
	c7.638,0.822,16.179,13.335,24.067,5.348c2.006,2.569,4.275,0.901,8.914,1.782c5.089,6.073,7.144,16.244,4.457,28.524
	c-0.986,4.509-4.892,9.099-6.239,12.479c-0.227,0.568,2.665,3.692-1.783,2.674c4.82,2.92-3.802,6.51,0,10.696
	c-1.666,1.305-4.235,1.707-3.565,5.348c6.63,4.477,14.296,13.331,22.284,16.045c0.717-0.472,1.447-0.93,2.674-0.892
	c-4.399-4.628,1.629-6.653-1.783-13.371c6.648,5.743-2.805-13.235-4.457-16.044c4.381-1.502,9.592,8.078,8.022,12.479
	c0.875,2.498,2.378-1.294,3.565,0.891c1.482,3.58-3.091,9.166,1.783,8.022c0,2.376,0,4.754,0,7.131
	c-7.292,0.634,0.943,11.449-7.131,10.697c-0.876,6.631-1.548,16.14-13.371,17.828c-4.882-0.972-7.192-11.745-8.022-8.914
	c-1.607-1.161,1.117-4.818-0.891-7.131c-9.933,3.9-15.838,3.899-29.416,5.348c-0.692-0.794-0.958-2.013-0.891-3.565
	c-4.622,0.896-5.083,0.414-9.805,0.891c-0.713-3.864-4.772-1.077-5.349-6.239c-6.715,2.066-17.618,6.663-16.936,0.891
	c-8.39,1.596-10.829-8.956-13.371-11.588c-1.715-7.611,4.099-14.589,1.783-19.609c-0.15-1.934,3.162-0.404,4.457-0.892
	c0-1.486,0-2.972,0-4.457c-0.775-2.633-1.334,2.068-3.565,0.891c1.929-1.851,0.049-3.039-1.783-3.565
	c2.467-2.205,1.833-3.485,1.783-4.457c1.944-4.468,3.96,5.222,5.348,7.131c3.33,0.953,2.541-2.214,5.348-1.783
	c0.436,2.813-1.606,3.148-0.891,6.24c3.319-3.023,15.186,1.808,16.936,3.565c1.096-0.389,1.831-1.141,1.783-2.673
	c5.299,5.202,25.666,0.268,24.958-6.24c-1.012,0.169-0.495,0.894,0,0.892c-0.58,1.513-2.05,0.557-1.783-0.892
	c-4.733,1.185-7.296-0.366-12.479,0.892c-0.519-12.75,17.262-14.792,20.502-26.742c1.78,4.7-3.222,14.209-8.022,17.828
	c0.653,0.832,1.621,1.35,2.674,1.783c4.947-0.402,5.368-5.328,10.697-5.348c-0.504,14.444-11.333,19.927-17.828,25.849
	c2.939,2.843,5.416-4.292,8.914-0.891c-2.236,1.57-0.626,1.473-1.783,3.565c11.712-6.539,18.912-18.318,18.719-32.089
	c3.95,1.031,4.817-6.61,1.783-7.131C173.182,222.828,175.156,222.31,173.569,221.877z M104.934,255.749
	c-13.287,12.252,6.747,26.253,20.501,17.827c-0.889-2.082-4.859-1.083-6.239-2.674c-1.101-2.884,2.884-0.682,1.783-3.565
	c-4.133-4.147-13.521-6.488-13.37-9.805C106.089,260.908,106.141,255.596,104.934,255.749z M158.416,268.228
	c-0.421,3.225,5.446-0.509,4.457-3.565C159.52,263.984,162.257,269.396,158.416,268.228z M172.678,273.576
	c-3.489,1.408-1.846-2.314-3.565-2.674c-7.56,0.572-12.896,7.755-19.61,6.239c0.067,1.552-0.199,2.773-0.892,3.566
	c3.497,0.228,3.313-3.224,7.131-2.674c-0.196,1.121-1.389,1.822,0.891,1.783c3.105-0.262-0.075-2.412,1.783-2.674
	C161.526,277.851,172.072,278.337,172.678,273.576z M137.022,282.49c4.186,2.318,7.122-0.905,8.914-3.565
	C142.229,279.376,137.307,278.615,137.022,282.49z M177.134,287.838c2.277,1.529,3.12-1.021,4.457,0.891
	c-1.948,0.131-1.913,2.246-1.783,4.457c1.035,0.748,2.39,1.175,4.457,0.892c-1.004-4.776,3.234-4.42,3.565-9.805
	C184.389,287.436,177.803,283.109,177.134,287.838z"/>
<path fill-rule="evenodd" clip-rule="evenodd" d="M949.058,409.956c1.299-1.221-2.926-5.182,2.674-5.348
	c-0.199-5.877-7.875-0.277-9.805-5.348c2.709-1.335,0.492-2.681,1.783-4.457c-4.1-1.447-4.51,0.73-7.131,2.674
	c-0.377-2.203-5.172-1.679-7.131-3.566c-0.561-0.541,1.74-1.014,1.781-0.891c-2.166-6.363-14.26-13.589-15.152-20.501
	c-0.717,0.471-1.447,0.93-2.674,0.891c0.281-5.628-2.939-7.757-5.348-10.696c0.486-1.296-1.043-4.607,0.891-4.457
	c-17.006-14.662,19.75-23.37,9.805-41.002c3.486-1.182,4.854-6.477,3.564-9.805c11.26-4.848,21.756-1.151,27.633,8.022
	c13.008-7.587,22.789,6.211,31.199,11.587c-0.314,1.171-1.57,1.402-1.783,2.674c8.111,11.017,18.254,32.628,3.566,42.786
	c7.236,15.691-8.027,29.157-13.371,34.763C963.282,413.866,956.374,403.025,949.058,409.956z M938.36,316.362
	c0.152-2.231-1.367-2.791-2.674-3.565c-0.875,1.44-2.377,2.051-3.564,0.892c-0.51,1.907-3.662,4.259,0,5.348
	c3.691-4.28,0.428,4.914,6.238,0C938.606,316.636,934.79,314.751,938.36,316.362z M924.099,311.905
	c1.705-0.375,3.838-0.323,3.566-2.674C926.138,307.621,924.159,309.504,924.099,311.905z M955.298,319.037
	c3.451,0.919,3.67-0.465,6.238,0.891c0.492-2.928-5.977-3.452-6.238-2.674C956.374,317.441,955.845,318.243,955.298,319.037z
	 M976.69,351.125c-0.553-6.832-5.305-22.75-16.045-20.501c4.18,1.92,2.461,3.137,2.674,8.022c1.049,0.14,2.531-0.153,2.674,0.892
	c1.912,8.676,9.457,15.839,7.131,25.85C977.585,363.221,977.085,356.021,976.69,351.125z M944.601,368.062
	c-2.08,2.065,2.623,1.9,2.674,4.457c0.262-1.858,2.412,1.322,2.674-1.783c-3.084,0.625-3.197-3.125-1.781-4.457
	c-3.381-1.67-4.529-5.575-6.24-8.914c0.895,0.002,1.061-0.723,1.783-0.892c3.707,2.941,6.34,7.348,10.695,8.914
	c-2.275,2.879,2.479,5.561,2.674,10.697c4.246-0.807,5.367-4.735,8.023-7.131c-0.896-7.375-0.076-13.795-3.566-20.502
	c1.229-0.039,1.957,0.419,2.676,0.892c-0.504-4.587-1.811-9.071-4.457-6.24c0.482-6.741-7.754-10.618-9.807-7.131
	c-0.199-1.686,1.006-1.967,0.893-3.565c-3.961,4.685-10.033-4.135-9.805,1.783c-1.398-4.34-4.162-2.85-8.023-3.565
	c-1.514,6.016,4.447,6.376,2.674,14.262c2.234-0.154,2.164,1.996,3.566,2.674c-1.957,1.16,1.055,4.818,0.891,7.131
	c-2.055-0.273-0.99,2.575-2.674,2.674c-3.395,0.088-4.592-6.647-7.131-4.457C933.675,359.011,939.271,366.837,944.601,368.062z
	 M921.425,366.279c-3.922-5.939-1.533-18.546-0.891-21.393c-1.039-0.149-0.969-1.409-0.893-2.674
	c-5.223,3.013-6.078,13.999-6.238,20.501c2.018,0.966,6.791,1.859,4.457,4.457C920.091,366.033,920.651,367.624,921.425,366.279z
	 M909.839,352.017c-4.002-1.978,4.488-6.533-0.893-7.131C908.005,347.197,905.698,354.618,909.839,352.017z M925.882,362.713
	c0.086-1.401-0.119-3.091,1.783-2.674c-2.002-2.369,1.332-4.54-0.893-6.24c-0.188,1.077-0.988,0.547-1.781,0
	C921.735,356.174,924.036,360.476,925.882,362.713z M937.47,374.301c-1.814-1.25,0.875-3.071-0.891-5.348
	c-4.809,1.036-3.824-3.832-8.023-5.349C925.876,369.218,933.757,375.228,937.47,374.301z M967.776,371.627
	c2.367-0.307,3.008-2.34,3.566-4.457c-1.668,0.048-1.889-0.686-0.893-1.783C966.897,364.806,967.897,368.776,967.776,371.627z
	 M961.536,393.02c0.523-1.099,1.873,0.945,2.676,0.891c-3.219,1.704-0.367,2.557,0,5.349c-4.082,1.406-1.648-3.701-4.457-3.566
	c-0.383,1.698-1.922,2.239-1.783,4.457c1,0.188,1.387,0.989,1.783,1.783c6.455,0.094,6.111-3.589,10.695-2.674
	c1.352-4.782,2.975-4.199,5.35-7.131c-3.084-2.568,4.889-6.323,0.891-9.805c-0.178,5.048-4.066,2.931-5.348,5.349
	c-0.012-1.771-2.434-1.133-1.783-3.566c3.434-0.529,9.295-5.767,5.348-8.021C970.974,381.666,962.921,387.857,961.536,393.02z"/>
<path fill-rule="evenodd" clip-rule="evenodd" d="M95.822,388.662c-3.167,3.294-5.345-1.421-5.348-6.24
	c5.785-2.281,5.055-10.357,0-13.371c-9.242,0.563-11.262,8.348-16.936,12.479c-2.746,0.666-1.086-3.074-4.457-1.783
	c4.826-1.414,6.784-5.695,8.022-10.697c7.699-1.199,10.436-8.709,16.936-7.131c8.06,1.957,6.889,12.844,10.696,17.828
	c4.969-5.497,6.729-8.633,11.588-9.805c24.349-5.873,22.776,25.781,22.284,44.568c-0.116,4.416,2.524,15.076,0,23.175
	c-1.235,3.963-10.727,9.316-6.239,11.588c-6.086,6.93-8.805,16.509-16.936,23.176c-10.383,1.816-13.452,7.722-27.633,4.457
	c-0.322-3.604,2.328-5.089-2.674-4.457c0.663-8.401,0.281-10.746,4.457-17.828c0.97,3.434,1.462,7.266-0.891,8.914
	c2.989,1.552,0.941,0.855,0.891,1.783c-0.411,7.697,18.439,6.687,17.828,0.891c-0.217-1.255-4.437,0.828-3.565-3.565
	c-3.047,0.373-5.08-0.269-4.457-3.565c1.044,0.145,0.752,1.625,0.892,2.674c2.853-0.774-0.38-7.699-3.565-8.022
	c-1.224-2.032,2.298-3.351,0-3.565c2.862,1.275,1.899-4.734,6.239-4.457c-1.687,2.976,0.842,5.005-1.783,6.24
	c3.592,1.756,5.631,5.065,9.805,6.24c1.235-1.439,2.526-2.823,3.565-4.457c2.669,0.587-0.852,1.905,0,3.565
	c1.549-1.466,3.742-6.895,1.783-8.914c4.829-1.204,2.42-11.015,5.348-11.588c-0.024-0.867-1.091-0.692-1.783-0.892
	c1.739-3.505,5.387-11.401,0.892-13.37c-6.894,3.47-7.602,20.737-16.936,16.044c1.966-3.678,4.133-7.158,6.24-10.697
	c-2.747,2.305-5.598,4.505-6.24,8.914c-2.417-2.431-2.219,2.306-5.348,1.783c-3.055,11.98-19.764,24.498-34.763,21.393
	c0.037-2.935,1.505-4.438,0.891-8.022c-4.784-1.068-0.853-5.474-6.239-5.348c0.736-2.52-1.256-2.309-0.892-4.457
	c0.892,0,1.783,0,2.674,0c-0.41-2.858-4.047-2.49-4.457-5.348c0.871-2.954,1.762,0.996,2.674,0.891
	c-0.983-4.657-2.994-7.139-3.566-9.805c-2.658-0.313-5.427-0.514-6.239-2.673c3.276-2.104-0.987-3.228,1.783-6.24
	c-6.021-0.538,2.637-9.274-3.565-13.371c1.616-3.138,0.667-8.84,5.348-8.913c-1.579,6.891-2.977,14.302,8.022,17.827
	c-2.271,1.893,2.646,3.973,0,6.24c3.871-0.9,3.973,1.97,5.348,3.565c1.428-2.942,2.698-0.508,6.24-0.891
	c0.113,1.598-1.091,1.88-0.892,3.565c1.128,1.858,8.646,0.006,5.348,3.565c11.073-2.285,21.671-2.027,23.176-13.37
	c2.067,3.462,7.191-10.81,3.565-16.044c-2.801-4.045-0.389,2.357,0-0.892C103.103,398.993,95.718,391.333,95.822,388.662z
	 M134.151,394.01c-1.236-2.219-2.526-2.119-3.565-2.674c0.2-1.686-1.005-1.967-0.892-3.565c1.528,1.61,3.505-0.273,3.565-2.674
	c-2.147-0.366-1.938,1.627-4.457,0.891c1.452-3.832-0.498-4.469,1.783-6.239c-10.001-6.343-19.553-1.42-25.85,7.131
	c1.305,5.529,6.274,7.393,7.131,13.371c4.571-1.89,4.701,1.127,8.022,0c2.061,3.288,2.062,8.635,3.566,12.479
	c2.974,1.501,3.042-0.566,6.239-0.892c3.161,6.763-4.388,17.371,0,20.501c-4.2,2.448-4.449,10.309-5.348,14.262
	c0.05-0.544,0.133-1.056,0.892-0.892c0.05,0.544,0.133,1.056,0.891,0.892c2.73-5.101,8.124-19.434,4.457-22.284
	c1.731-7.267,5.535-15.44,1.783-23.175c2.456,0.867,2.604-4.982,1.783-4.457C131.949,399.665,131.949,393.964,134.151,394.01z
	 M116.323,418.968c-0.153-2.521,0.767-6.115-1.783-6.239C115.44,416.347,111.834,418.939,116.323,418.968z M101.17,429.664
	c1.402-3.08,7.354-6.281,6.24-8.914C105.918,423.74,99.563,426.539,101.17,429.664z M67.298,443.926
	c-0.067-1.553,0.199-2.772,0.891-3.565c-4.967-1.104-5.507,2.218-7.131,4.457c4.662,0.599,3.619,2.116,4.457,7.131
	c5.214,2.48,8.922,0.496,12.479,0c-0.627-2.224-0.877-3.663,0.892-5.348c0.952,0.831,0.277,3.288,2.674,2.674
	c0.06-2.615,2.724-2.625,3.566-4.457C78.959,446.33,75.348,441.606,67.298,443.926z"/>
<path fill-rule="evenodd" clip-rule="evenodd" d="M85.125,379.748c-0.842,1.535-3.294,1.458-2.674,4.457
	c-3.445-1.719-3.516,2.271-6.24-0.892c3.396-1.358,4.475-5.033,8.022-6.24c0.767,0.719,0.53,2.442,1.783,2.674
	C85.847,380.759,85.122,380.242,85.125,379.748z"/>
<path fill-rule="evenodd" clip-rule="evenodd" d="M49.471,394.901c3.171-1.287,1.854-7.061,6.24-7.131
	c-0.28,4.308-4.44,4.897-1.783,8.022C53.113,398.216,52.271,393.418,49.471,394.901z"/>
<path fill-rule="evenodd" clip-rule="evenodd" d="M68.189,394.01c-3.991,3.734-6.536,8.915-8.914,14.262
	c-1.525,0.188-2.309-1.52-2.674,0C58.777,407.528,59.942,394.182,68.189,394.01z"/>
<path fill-rule="evenodd" clip-rule="evenodd" d="M936.479,465.517c-1.137,1.867,4.266,1.563,2.674,0.891
	c14.75,0.705,21.703,16.921,30.307,26.741c2.609,0.232,2.738-2.015,5.348-1.783c-2.604-6.474,1.053-10.601,4.457-15.153
	c8.488,2.333,21.568,8.933,20.502,20.501c3.047,2.189,2.129,3.807,8.914,3.566c23.795,16.568,21.078,64.428-8.914,72.201
	c-0.484,2.07-0.576,7.211,0.891,9.805c-0.932,0.57-5.967,3.439-1.783,3.565c-4.887,1.062-12.738,4.823-12.479,3.565
	c-2.973,0.398-0.904,3.836,0.891,4.457c5.057,0.638,14.471-9.807,20.502-10.697c-1.967,9.676-15.188,15.396-22.283,14.263
	c-1.932-0.149-0.404,3.161-0.893,4.456c-10.219-0.988-7.42-11.947-11.588-17.826c-8.588,4.625-13.986,10.334-20.5,15.152
	c-7.652,0.334-13.688,8.516-24.959,3.566c2.844-4.848-7.035-5.661-8.914-9.806c-3.508-7.738,4.539-14.136,0.893-23.175
	c1.982,0.114,4.283-3.922,2.674-4.457c0.275-1.211,2.232-0.739,3.566-0.892c1.334-11.616,1.885-35.213,11.588-41.895
	c-7.143-4.147-8.088-14.495-13.371-20.501c2.076-0.196-0.273-11.723-3.566-11.588C918.345,476.096,927.45,471.02,936.479,465.517z
	 M944.503,518.999c9.537-12.525-12.688-22.286-0.893-32.09c3.67,1.976,4.195,7.096,8.023,8.914c-2.801,0.45-3.643-2.101-4.457,0.891
	c5.615,0.196,3.105,9.618,9.805,6.24c0.037-1.227-0.42-1.958-0.891-2.674c2.562,1.215,6.852-2.325,8.021-5.349
	c-5.855-1.635-6.584-10.91-13.371-8.914c-0.104-6.027-8.441-6.924-6.238-12.479c-2.811,0.579-10.361-0.672-9.807-0.892
	c-14.572,5.759-5.352,28.133,2.676,35.655c0.199,1.686-1.006,1.966-0.893,3.566c5.098,1.736,4.115,9.551,8.023,12.479
	c-0.275-2.055,2.574-0.989,2.674-2.674C942.854,521.825,948.524,514.481,944.503,518.999z M980.155,491.366
	c5.365,0.579,9.527,2.358,14.264,3.565c-1.232-7.087-7.865-8.774-12.48-12.479C977.845,486.471,980.681,488.678,980.155,491.366z
	 M961.438,550.197c1.332,2.473,3.645-1.547,4.455,0.892c1.152,3.527-2.932,1.819-1.781,5.348c4.164,2.832,4.738,10.15,10.695,12.479
	c12.461,4.872,29.477-0.149,32.98-10.696c0.199,0.691,0.025,1.758,0.893,1.782c-0.18-3.878-1.012-6.483,0.891-9.805
	c4.393,1.544,0.662,7.229,2.674,9.805c11.834-14.382,15.229-36.202-1.783-47.243c-0.107,1.517-1.449,8.335-4.455,6.24
	c-0.664-2.744,2.445-1.714,1.781-4.457c-1.615-3.099-12.443-9.369-8.021-9.805c-4.453-6.174-12.482-8.573-20.502-8.914
	c-3.105,6.104-12.135,6.287-13.371,14.262c1.219,3.537,3.133,6.376,2.674,11.588c-1.77,0.012-1.131,2.432-3.564,1.783
	c-2.746,0.666-1.086-3.074-4.455-1.783c5.506,8.081,7.027,19.062-1.783,22.285C958.269,547.438,964.636,546.737,961.438,550.197z
	 M1008.681,509.194c0.379-1.7,2.547-1.613,1.781-4.457c-1.334,0.152-3.289-0.318-3.564,0.892
	C1009.317,504.99,1006.259,509.832,1008.681,509.194z M953.415,535.935c4.441,0.126,5.252,1.9,8.023,1.783
	c-2.955-4.475-2.381-12.475-8.023-14.262C951.405,528.572,954.249,530.692,953.415,535.935z M943.61,542.175
	c-1.744-1.666-0.275-3.265,0-5.349c-3.988-1.318-1.57-4.775-4.457-8.022c-1.143,1.843-3.693,4.959-1.781,7.131
	c-2.465-2.393-2.359,5.643-2.676,8.914c-1.156,11.983-4.543,22.357-6.238,33.873c2.182,9.112,1.9,19.082,13.369,20.5
	c4.037-5.195,16.994-15.143,22.285-21.393c-2.961-1.887,2.674-2.589,1.781-5.348c-3.908,0.15,0.711-3.137,0.893-4.457
	c-4.719,0.674-0.84-2.333-2.674-3.565c-10.189-0.626-12.666,14.774-22.285,8.913c1.736-1.365,1.145-15.24-2.674-16.936
	c3.334-4.327,1.633-11.875,2.674-16.045C942.292,540.735,943.146,544.722,943.61,542.175z M948.96,559.11
	c1.227-0.038,1.955,0.42,2.674,0.892c-0.963-3.702,0.738-4.901-0.893-7.131C948.517,555.31,950.38,556.673,948.96,559.11z
	 M992.636,576.938c0.82-3.496-4.701-0.647-5.35-2.674c-0.139,1.049,0.154,2.529-0.891,2.674c-0.596-3.104-4.869-0.602-8.021-2.674
	c-0.102,1.086-0.268,2.109-1.783,1.782c1.578,3.684,2.443,2.781,2.674,7.13c3.564-0.295,4.949,1.59,8.914,0.893
	C989.661,581.868,997.485,571.846,992.636,576.938z"/>
<path fill-rule="evenodd" clip-rule="evenodd" d="M9.062,606.749c-9.656-11.588-5.061-13.13-9.062-18.568
	c0.942-10.52,0.131-19.095,5.497-28.674c9.727-3.941,14.704-12.631,26.741-14.262c13.198-21.699,39.691-9.596,55.265,2.674
	c14.775-8.097,45.231-7.8,64.179-4.457c2.687-2.683,8.391-5.004,13.371-2.674c0.426,3.193,1.45,5.15,0,8.022
	c0.586,2.67,1.905-0.853,3.565,0c6.844,10.834-9.511,14.726-15.153,17.827c-1.066,0.586-1.235,2.748-3.565,3.566
	c-9.712,3.406-23.157,11.262-33.872,18.718c-7.099,4.94-16.785,8.526-22.284,15.153c-2.303,2.775-3.226,8.503-7.131,10.696
	c-4.03-1.153-9.197,2.12-11.588,5.349c-8.08-0.723-13.665,3.354-18.718,3.564c-1.411,0.06-0.867-2.393-2.674-2.674
	c-1.059-0.164-3.4,1.804-3.565,1.783c-2.389-0.293-5.3-2.803-8.022-2.674c-8.216,0.39-18.847,0.146-25.85-9.806 M52.74,546.136
	c3.349,0.676,3.015-2.332,4.457-3.564c-2.283-0.812-5.053-1.445-6.239,0.891C53.904,544.426,55.18,541.276,52.74,546.136z
	 M99.09,549.702c-2.47,1.464-1.59,9.784-5.348,7.131c-0.306,6.383,6.678,4.529,5.348,9.805c0.871-0.912,1.763-1.803,2.674-2.674
	c5.3,2.652,7.37-6.918,12.479-4.457c8.548-8.689,22.402-4.223,29.415-9.805 M129.396,548.811 M58.088,549.702
	c0.866,3.293,2.502,5.816,7.131,5.348c-0.482-3.156,3.156-2.191,2.674-5.348C63.59,549.401,63.944,550.047,58.088,549.702z
	 M58.979,590.704c-2.361,1.205-4.178,2.955-6.239,4.457c-0.213-2.46-3.314-2.033-4.457-3.564c1.533,0.049,2.285-0.688,2.674-1.783
	c-3.947,0.425-4.433-1.227-7.131,0c0.86-7.283,2.626-12.039,0.892-19.609c1-0.092,1.387,1.295,1.783,0
	c-1.365-0.012-2.93-2.433,0-1.783c-2.312-3.384-2.166-3.728-1.783-9.805c-3.197-0.227-3.266,2.676-6.24,2.674
	c-0.773-1.995-0.026-3.676-2.674-5.349c1.686-0.2,1.967,1.005,3.566,0.892c0.452-3.361,2.632-4.007,0-7.131
	c-2.505,3.935-5.037,2.416-8.914,4.457c0.624-2.744,0.624-1.713,0-4.457c-7.711,2.985-15.259,6.134-17.827,14.262
	c-4.663-1.381-6.996,11.115-5.349,16.045c-0.891,0-1.783,0-2.674,0c-2.453,10.629,4.044,21.672,8.914,28.523
	c3.253-0.578,4.748,0.601,6.24,1.782 M83.046,603.184c-4.624-0.812-8.505-0.138-8.914,1.782c0.638-2.42-4.203,0.64-3.565-1.782
	c-0.158-3.128,3.011-2.932,3.565-5.348c-1.333-0.151-3.289,0.317-3.565-0.892c2.36-2.506-1.573-6.162,2.674-2.674
	c0.352-1.535-1.323-2.285,0-2.674c4.539,1.021,7.81-3.049,12.479-2.675c0.375-5.516,3.547-1.776,0.892-8.913 M83.046,561.29
	c-2.883-0.457-6.064-4.771-8.022-0.892c-0.284-2.093-2.759-1.995-3.565-3.565c-3.649,1.441-4.697,1.967-8.022,0
	c4.081,11.01,9.309,17.785,6.239,30.307c1.401,0.084,3.091-0.119,2.674,1.782c-4.68,2.265-6.806,14.194-5.348,16.936
	c-3.831,0.991-1.141,0.418-2.673-0.892c-0.363,1.719-3.456,0.705-2.674,3.566c1.774-0.604,11.663,0.149,12.479-2.675
	 M51.848,557.725c0.521,3.339,0.665,2.694,0.892,7.131c2.296,1.269,5.043,2.089,5.348,5.349c-3.479-0.582,0.456,3.389-0.892,6.239
	c2.519-0.737,2.31,1.256,4.457,0.892c-1.68-7.805-5.072-13.636-4.457-18.719C55.974,562.48,53.525,558.548,51.848,557.725z
	 M118.701,569.312 M143.659,563.073 M103.547,572.878c-1.566,3.89,1.766,10.102-2.674,12.479
	c11.248-2.688,25.922-13.689,37.438-19.609"/>
<path fill-rule="evenodd" clip-rule="evenodd" d="M190.288,704.869c-2.457,3.329,2.181,5.724,4.457,7.131
	c-1.016,7.988-2.88,12.583-4.457,22.284c2.697-5.189,2.189,5.479-0.892,1.783c0.715,8.399-10.118,12.274-16.044,16.935
	c-2.07-0.604-3.072-2.275-4.457-3.564c-1.209,0.276-0.739,2.232-0.892,3.564c-2.809,0.137-1.734-3.613-3.565-4.455
	c-2.808-0.432-2.019,2.734-5.348,1.782c-0.024-0.867-1.091-0.691-1.783-0.892c-1.745-2.33,3.712-5.196-2.674-3.565
	c2.267-5.45,9.874-3.394,10.696,1.783c12.064,1.562,22.441-9.169,18.718-18.719c-5.942,5.895-19.619,15.992-24.958,2.674
	c-8.878-0.78-5.498,4.411-15.153,4.457c-0.152-2.529,3.015-1.739,1.783-5.349c-11.408,13.969-18.417,36.682-45.459,32.089
	c-1.235-4.026-2.449-3.286-6.24-5.349c-1.224-2.031,2.298-3.351,0-3.565c0.653-1.586,1.621-0.128,2.674,0
	c-1.875-5.133-4.69,2.213-6.24,0c-0.113,1.6,1.091,1.881,0.892,3.565c-7.917-5.214-18.078,2.18-26.741-5.348
	c-0.111-2.23-1.702-2.791,0.891-3.564c-0.099-1.685-2.947-0.62-2.674-2.675c-2.298,0.216,1.224,1.533,0,3.565
	c-4.184-0.271-4.217-6.396-8.914-3.565c-5.647-7.701-6.313-22.177-6.24-31.197c-0.608-16.616,21.044-24.273,32.981-25.851
	c0.437-2.813-1.606-3.147-0.891-6.239c8.101-3.569,19.256-9.173,14.262-20.502c1.931-12.102,5.761-27.249,23.175-24.066
	c7.836-4.865,20.426,0.711,24.958,7.131c7.183,0.552,10.067,10.124,16.045,8.913c2.851,5.172,7.969,8.076,12.479,11.588
	c0.162,1.945-0.729,2.837-2.674,2.675c2.075,7.15,8.718,11.338,12.479,16.044C185.545,690.703,184.073,700.568,190.288,704.869z
	 M102.042,670.105c4.216,1.23,5.859-2.792,8.022-0.892c0-0.594,0-1.188,0-1.782s0-1.188,0-1.783
	c-2.861-0.781-1.848,2.312-3.565,2.675c1.022-3.696-1.875-3.474-1.783-6.24c1-0.09,1.388,1.296,1.783,0
	c-3.299-6.171,3.81-16.988,5.348-16.936C97.686,647.14,100.703,658.537,102.042,670.105z M118.978,646.931
	c-5.196,6.904-8.235,7.064-8.022,15.152c3.293,0.1,2.58,1.634,0.892,2.675c2.569,0.401,2.789,3.154,6.24,2.674
	c1.622-3.097,11.43,0.23,13.371,2.674c1.09-1.287,3.402-1.352,4.457-2.674c4.35,4.703,10.87,5.418,16.936,3.565
	c2.572,0.399,2.107,3.836,4.457,4.457c2.24-3.788-5.901-6.652-3.565-10.696c-3.955,0.045-3.096-5.691-6.24-1.783
	c-0.778-4.822-4.349-7.646-4.457-10.696c-3.542,0.383-4.812-2.051-6.24,0.892c-1.484-1.771,0.081-1.134,0-3.565
	c-3.321,0.943-2.877-1.877-4.457-2.674c-3.779,2.387-7.654-4.281-16.936-2.674C115.037,648.677,118.083,644.761,118.978,646.931z
	 M111.847,678.128c4.25-2.626,10.763,0.809,12.479-5.348c-3.035,1.545-5.228-0.686-9.805,0
	C113.722,674.655,113.136,676.742,111.847,678.128z M133.24,685.259c-0.188,1.001-0.99,1.388-1.783,1.783
	c-0.824-4.694-4.128-1.369-5.349-5.349c-2.56,0.852-0.581,2.958-1.783,3.565c-5.446-3.646-14.707,4.19-18.719-0.892
	c3.648,0.974-0.12-5.468,4.457-3.565c-4.989-6.095-17.878,1.242-22.284,4.457c3.808-0.306,11.135-1.136,12.479,5.349
	c-3.165,1.589-7.764,1.744-9.805,4.457c-1.571-4.304-0.652,0.254-1.783,0.891c-17.488-1.948-37.265,5.324-35.655,25.851
	c0.392,4.991,3.512,9.729,7.131,13.37c-2.164-5.665,2.186-8.718,4.457-12.479c1.392,4.99-3.362,8.477-1.783,10.696
	c1.321-0.987,7.512,4.528,5.348,7.131c2.998-0.621,2.921,1.832,4.457,2.674c-0.188,0.999-0.989,1.388-1.783,1.783
	c-1.283,0.476-2.175-3.474-2.674-0.892c1.299,2.411,10.19,2.071,14.262,1.782c1.102-2.885-2.884-0.682-1.783-3.565
	c2.432-0.081,1.794,1.485,3.565,0c0.081,2.433-1.485,1.794,0,3.565c1.882,1.184,2.634-0.44,5.349,0.892
	c5.269-2.144,12.511-2.991,15.153-9.805c-1.049-0.14-2.53,0.153-2.674-0.892c0.688-8.247,2.85-13.761,3.565-21.393
	c-2.756-0.863-4.365-2.236-2.674-5.349c-2.61,0.231-2.738-2.016-5.348-1.783c1.014,6.364-2.554,8.143-7.131,8.914
	c1.116-6.903,0.497-15.848-1.783-19.61c6.818-3.799,7.311-0.44,8.914,8.022c4.905-3.543,10.448,1.418,13.37-4.457
	c7.753,2.181,7.317,13.221,8.914,19.61c0.357,1.431-0.084,7.892,3.565,5.349c-3.389-0.39,7.392-2.774,1.783-6.24
	c9.271,1.309,11.106-15.533,15.153-19.609c-2.021-3.851-5.204-9.513-7.131-10.697c0.01-1.179,1.562-0.814,1.783-1.782
	C131.118,687.691,135.741,685.271,133.24,685.259z M146.611,686.15c-2.367,0.308-3.009,2.34-3.565,4.457
	c1.91,1.543,6.13,0.259,3.565-1.783C145.828,690.774,145.828,687.136,146.611,686.15z M158.199,693.281
	c-1.937,5.949-0.412,21.586-6.24,20.502c-0.365,2.147,1.627,1.938,0.891,4.457c-1.828-1.911-4.243-0.466-4.457,1.782
	c1.66,0.852,2.979-2.67,3.565,0c-1.572,0.806-2.761,1.994-3.565,3.565c1.752,0.267,1.768-1.203,2.674-1.782
	c0.991,14.361,23.166,1.802,27.632-4.457c-0.099-1.685-2.947-0.619-2.674-2.674c1.189,0,2.377,0,3.565,0
	c-1.529-4.113-3.176-0.68-1.783-7.132C173.384,700.677,163.74,699.03,158.199,693.281z M119.87,729.828
	c-3.973,9.974-10.969,16.107-20.501,22.283c15.119,10.404,31.852-8.586,36.546-19.609c0.689-2.277-3.488-4.099-0.891-5.349
	c1.178,0.011,0.815,1.562,1.783,1.783c0.854-7.406,9.601-15.628,6.24-21.394C137.99,716.587,132.389,732.479,119.87,729.828z
	 M166.22,732.502c3.63,1.915,6.433-0.906,8.022-3.565C171.177,729.732,168.687,731.104,166.22,732.502z"/>
<path fill-rule="evenodd" clip-rule="evenodd" d="M935.786,752.537c2.984,0.805,0.779,1.994,0,3.565
	c8.727-1.673,14.096-6.702,18.719-12.479c-6.371,2.338-13.355,3.271-16.936,6.239c0.736-2.519-1.256-2.309-0.891-4.456
	c2.953-2.439,5.66-0.497,8.021,0c11.645-5.491,15.141-16.791,17.828-29.415c2.725-0.646,2.621,1.538,5.348,0.892
	c0.271,3.638-1.861,0.477-3.564,0.892c4.238,4.377,10.988,6.244,16.936,8.914c1.021,3.695-1.875,3.473-1.783,6.239
	c-2.6-2.707-9.285,2.938-10.697-1.783c-4.547,2.782-9.869,9.491-6.238,15.152c4.873-1.997,6.092,5.226,11.588,5.349
	c-2.824,8.283-14.52,6.182-23.176,4.457c-2.26-2.178,1.879-1.899,0.891-5.349c-6.365,6.204-22.828,12.182-32.09,7.131
	c-8.385,4.706-19.061,12.473-30.307,8.914c0.801-5.999-2.09-3.088-4.457-6.239c2.586-8.155,1.172-17.659-0.891-25.85
	c-0.346-1.374-1.791-1.132-2.674-3.565c-1.68-4.634,2.775-14.226-8.023-13.37c-8.836-12.785,5.389-18.384,12.48-26.741
	c6.494,2.154,11.422-4.49,16.045-7.131c-2.23-3.007-2.773-2.187,0-5.349c-8.387-0.957-11.078,3.778-15.154,7.131
	c-0.25-6.589,11.904-12.47,18.719-9.805c8.512-17.641,29.201-6.006,32.98,8.022c1.188-0.894,2.691-1.47,3.566-2.675
	c0.416,3.446,5.873,1.853,5.348,6.24c3.246-1.636,5.324,0.197,8.023-0.892c3.156,7.603,5.783,5.781,6.238,15.153
	c1.902,0.416,1.699-1.274,1.783-2.674c2.137,4.696,1.369,12.778-3.564,13.37c1.164-6.665,1.525-9.515-1.783-15.153
	c-2.744-0.664-1.713,2.446-4.457,1.783c-0.549-2.975-2.617-3.044-0.891-6.24c-1.875-3.77-9.07-2.223-9.807-7.131
	c-4.061-0.137-3.496-0.737-7.131,0c-1.566,0.215-2.031,1.534-1.783,3.565c-14.264-0.421-9.479,21.888-19.609,18.719
	c-1.529-3.872-0.225-4.555-1.783-8.913c-4.309,4.903-7.338,12.203-8.021,16.936c-0.191,1.325-0.939-0.113-1.783,0
	c-0.328,1.517,0.695,1.682,1.783,1.783c-0.893,1.187-1.469,2.689-2.674,3.565c0.857,10.133,5.941,16.045,11.588,21.392
	c-0.793,0.692-2.014,0.959-3.566,0.892c1.914,7.893,11.146,8.464,16.045,13.371C930.204,756.463,935.489,756.994,935.786,752.537z
	 M910.829,677.662c-6.311,10.329-18.318,14.96-23.176,26.741c1.662,5.16-1.717,10.574-1.783,15.153
	c1.85,0.526,3.039,1.715,3.564,3.565c-1.039,1.338-2.574,2.18-2.674,4.457c0.867,2.996,2.535,5.189,4.457,7.131
	c0.775-2.592,1.336-1.003,3.566-0.891c1.102-2.885-2.885-0.682-1.783-3.565c5.412-1.254,3.67,4.648,6.24,6.239
	c1.455-1.442-0.795-3.729,0-7.131c-1.049-0.14-2.531,0.153-2.676-0.892c2.686-3.188,2.414-15.692,3.566-21.393
	c-0.199,0.69-0.023,1.757-0.891,1.782c0.691-1.77,0.514-5.808,2.674-3.565c0.684-11.38,4.463-18.038,9.805-24.958
	c1.352,0.08,3.025,2.144,5.348,3.565c-1.666,3.276,0.59,4.932-0.891,8.022c9.137-0.157,9.844-6.945,18.719-8.914
	c-1.938-4.896-5.057-8.611-8.914-11.588c-0.127,3.438,0.697,7.827-1.783,8.914c-1.053-0.433-2.02-0.951-2.674-1.783
	c0.361-4.947-1.777-4.765-1.783-10.696c-4.873-0.418-4.523,4.389-8.912,4.457C910.749,675.645,909.829,674.855,910.829,677.662z
	 M904.589,702.621c2.996,1.03,10.061-10.211,4.457-12.479C906.54,695.248,907.942,699.201,904.589,702.621z M916.177,693.707
	c-1.037,3.722,0.105,4.368,1.783,7.131c0.586-2.978,2.771-4.359,3.564-7.131C918.915,692.906,918.786,692.906,916.177,693.707z
	 M882.304,717.774c0.504-5.31,4.322-8.402,2.674-13.371c-2.807-0.431-2.018,2.736-5.348,1.783c0.471-6.373,11.033-5.192,7.131-9.806
	C878.403,698.403,866.755,714.956,882.304,717.774z M966.985,722.231c-1.32-1.033-2.248-1.033-3.566,0
	c0.693,1.981,0.514,4.833,2.674,5.348C965.124,723.21,963.978,722.818,966.985,722.231z M893.892,738.275
	c-0.436,3.129-2.271,4.859-3.564,7.131c1.678,3.19,4.125-0.559,5.348,0.891c-1.17,5.211-6.918,1.103-8.021,5.349
	c1.025,6.423,3.547,6.957,6.238,12.479c7.523-0.247,12.854-3.972,20.502-6.24c-1.969-4.424-8.176-7.833-11.588-8.022
	C902.38,747.002,898.198,740.223,893.892,738.275z M952.724,751.646c2.803-1.021,2.164,1.4,3.564,1.782
	c0.139-1.048-0.152-2.53,0.891-2.674c0.834,4.687,6.059,0.063,7.133,3.565c1.004-1.371,2.561-2.192,3.564-3.565
	c-2.396,0.614-1.723-1.843-2.674-2.674c-4.816,1.25-4.725-2.407-8.023-2.674C956.532,748.324,952.493,747.852,952.724,751.646z"/>
<path fill-rule="evenodd" clip-rule="evenodd" d="M964.312,713.317c-0.252-2.331,0.324-3.835,2.674-3.565
	c0.328,1.517-0.695,1.681-1.783,1.783c0.314,1.021,1.568,2.26,1.783,0.891c0.865,0.024,0.691,1.092,0.891,1.783
	c-0.758-0.164-0.842,0.347-0.891,0.892C966.077,714.521,966.063,713.051,964.312,713.317z"/>
<path fill-rule="evenodd" clip-rule="evenodd" d="M241.412,753.428c1.685,1.7,9.454,2.686,11.588,6.24
	c-0.837,5.981-1.754,7.943-4.457,10.696c4.023,3.793,11.283-4.853,15.153-4.457c4.217,3.606,5.323,9.513,1.783,16.937
	c-0.822,1.725-3.558,2.093-4.457,3.565c-1.738,2.848-2.992,15.3-2.673,12.479c-0.059,0.52-0.728,7.855,0.891,1.782
	c4.018,4.769-1.046,13.2-1.783,16.045c-0.715,2.759,1.905-1.161,0,1.782c-7.035,10.872-9.96,37.505-25.85,32.09
	c1.269-1.419,5.796,1.322,6.24-2.674c-3.393-1.096-8.769,2.042-11.588-1.783c-7.502,5.323-14.738,15.502-26.741,13.371
	c0.692-0.794,0.958-2.014,0.891-3.565c13.854,1.416,19.965-11.938,26.741-20.502c-0.284-2.093-1.408-3.347-0.891-6.239
	c3.604,3.849,1.719,8.77,0,12.479c1.858,2.829,10.055,1.12,10.696-2.674c2.67,0.586-0.852,1.905,0,3.565
	c2.8,0.423,3.642-1.111,4.457-2.674c-0.58-0.906-2.05-0.922-1.783-2.674c2.387-0.221,3.389-3.756,5.348-1.783
	c4.729-7.661,5.89-15.273,5.348-26.741c-0.653-0.833-1.621-1.351-2.674-1.783c-2.151,6.048-4.943,5.963-10.696,8.022
	c2.501-5.914,4.53-6.139,6.24-9.805c-6.108,2.271-18.63-0.693-22.285-8.022c0.792-1.586,2.489-2.266,1.783-5.349
	c-4.351-2.778-10.054-4.208-9.805-11.587c3.872-0.621,7.634,8.717,13.371,4.456c1.295,0.396-0.091,0.782,0,1.783
	c2.746,0.667,1.086-3.073,4.457-1.783c-0.692-0.792-0.958-2.013-0.891-3.565c1.279,3.922,5.158-2.142,3.565-3.565
	c-0.592-0.04-1.035,1.172-0.892,1.783c-1.456-6.194-5.452-7-8.914-8.914c-5.107,2.868-9.387,11.115-16.045,7.131
	c-0.848-8.091,12.895-10.724,11.588-13.37c0.93-2.49,5.218,0.407,2.674,1.782c1.319-1.031,2.247-1.031,3.565,0
	c1.228-0.893-0.38-1.469,1.783-2.674c-6.698-1.701-13.83-1.961-20.501,0.892c0.025-0.866,1.091-0.692,1.783-0.892
	c-13.787-1.898-15.938,15.554-24.066,22.284c0.274,10.355,9.856,1.319,12.479,0.892c6.842-0.636,11.026,2.015,18.719,5.348
	c-0.395,0.793-0.782,1.596-1.783,1.783c3.349,3.168,7.444,8.465,8.914,10.696c3.885,5.9,3.246,9.986,7.131,14.262
	c-4.32,4.318,2.279,9.284-7.131,8.914c-0.56-2.709,1.141-7.677-0.892-8.914c0.792-0.803,2.714-0.071,2.674-3.565
	c-0.867,0.024-0.692,1.092-0.892,1.783c-6.237-10.295-14.232-16.106-21.393-21.393c-2.117,0.521-4.149,1.365-4.457-1.783
	c-4.873-0.416-3.877,5.037-5.348,8.022c4.139-2.717,1.209,3.193,5.348,2.674c-3.251,1.503-4.074,5.434-3.566,10.696
	c-0.968-0.22-0.604-1.771-1.782-1.782c-0.867,0.024-0.691,1.092-0.891,1.782c-2.376-4.122-1.346-9.077-3.565-11.588
	c-1.684,0.668-0.619,2.661-2.674,0.892c-0.151-2.466,1.369-3.061,2.674-1.782c-0.801-1.575-2.152-2.604-2.674-4.457
	c-1.563,2.002-5.376,1.754-8.022,2.674c0.692-0.793,0.958-2.013,0.892-3.565c-2.177,0.497-1.9,3.449-5.348,2.674
	c-2.786,7.653-5.963,13.759-7.131,18.719c0.145,1.045,1.625,0.752,2.674,0.892c-2.685,16.749,8.738,32.416,24.067,29.416
	c-0.513,1.863-2.21,2.544-1.783,5.348c-4.983-0.218-4.663-0.515-9.805-0.892c-0.325-2.572-0.826-2.107-2.674-4.456
	c-1.772,0.01-1.134,2.432-3.565,1.782c-1.246-1.726-1.081-4.861-4.457-4.457c-0.724-3.083,1.664-3.764,0-5.348
	c-3.912,2.421-4.775-1.137-8.022-1.783c0.758-1.322,2.243-1.917,4.457-1.782c-6.275-4.328-0.242-9.987-8.022-12.479
	c0.314-1.172,1.569-1.402,1.783-2.674c-2.649-15.616,8.57-23.768,16.936-30.308c-1.718-5.835,3.508-7.191,1.783-11.587
	c6.53-5.355,10.959-12.812,16.044-19.61c5.996-3.168,14.226-3.823,19.61-5.349c5.139,3.398,13.055-1.129,16.044,3.565
	C234.741,757.454,237.194,754.559,241.412,753.428z M254.783,776.604c3.204,0.361,3.36,3.771,5.348,5.349
	c0.44-3.126,1.329-5.801,0.891-9.805C257.81,772.5,255.343,773.6,254.783,776.604z M227.15,794.432
	c1.023,2.436,5.199,6.461,4.457,6.239c13.226,3.949,11.135-8.938,12.479-16.936c-2.381,0.003-1.937-2.817-4.457-2.675
	C238.02,788.922,231.071,789.097,227.15,794.432z M249.435,802.454c2.732,0.875-1.025,2.378-0.892,3.565
	c4.789,1.793,3.524-1.912,4.457-5.349C251.34,800.794,250.021,801.257,249.435,802.454z"/>
<path fill-rule="evenodd" clip-rule="evenodd" d="M208.431,808.693c0-0.595,0-1.188,0-1.783c1.77,0.607,2.04,2.715,3.565,3.566
	c0.213,3.48-3.311,3.226-5.348,4.456c2.461,1.962,0.714,10.105-3.565,10.697c-1.156-4.192,5.095-9.264,0.891-10.697
	c-0.187-1.524,1.52-2.308,0-2.674C208.653,811.357,209.563,809.024,208.431,808.693z"/>
<path fill-rule="evenodd" clip-rule="evenodd" d="M341.126,952.768c-1.588-0.653-0.128-1.62,0-2.673
	c-2.746,0.308-5.104-4.323-6.24-2.674c1.171-4.056-4.736-3.431-4.457-8.914c-1.037-0.145-1.586,0.196-1.783,0.892
	c-5.666-11.236-15.888-26.69-8.914-45.46c4.843,0.995,6.362-5.142,8.914-7.132c3.807-2.967,6.824-2.42,8.914-5.348
	c0.541-0.758,3.402-13.328,4.457-9.806c11.101-8.867,24.125-20.359,27.632-33.872c3.075-1.381,4.934-3.979,9.805-3.565
	c3.573-3.26,6.082-7.586,8.914-11.587c3.199-0.525,4.312,1.035,6.24,1.783c-0.527,6.779,0.384,5.463,2.674,11.587
	c1.562-0.815,3.097-1.657,2.674-4.457c3.78,0.083,4.601,3.125,6.24,5.349c-2.872,11.84-1.256,26.759,0,46.351
	c0.757,0.164,0.84-0.347,0.891-0.891c2.163-0.556-3.729,6.834,0.892,8.913c-8.588,14.556,3.782,41.685-12.479,50.809
	c-4.172,10.088-10.113,18.41-24.067,18.718C363.572,967.037,347.486,955.76,341.126,952.768z M382.129,852.044
	c3.559-1.809,5.735-9.692,4.457-13.371C385.751,843.781,383.271,847.243,382.129,852.044z M379.455,882.351
	c7.162,4.128,13.358,9.223,19.61,14.262c-1.644-6.535-0.293-10.821-3.565-19.61c7.911-9.643-2.035-23.806,2.674-36.546
	c-0.892,0-1.783,0-2.674,0C390.326,856.186,385.778,869.92,379.455,882.351z M374.106,848.479c0.188-1.076,0.99-0.549,1.783,0
	c0.631-0.658,2.221-4.363-0.892-3.566C376.178,847.146,370.848,847.077,374.106,848.479z M367.867,865.414
	c4.594-1.554,0.655-6.993,3.565-12.479c-3.074,0.491-3.894,3.237-5.348,5.349c1,0.188,1.387,0.99,1.783,1.782
	c-6.568,7.392-17.79,13.344-20.502,19.61C354.923,874.176,373.147,882.47,367.867,865.414z M374.998,874.328
	c3.137-6.074,5.455-12.967,7.131-20.502c-0.196-0.694-0.747-1.035-1.783-0.892C377.583,859.112,374.845,870.607,374.998,874.328z
	 M371.433,886.807c-5.053-7.215-12.629-1.253-21.393,0c-0.002-0.893,0.722-1.061,0.892-1.782
	c-12.476,3.184-25.952,10.881-26.741,24.958C337.28,895,344.892,885.89,371.433,886.807z M351.822,947.421
	c-1.087,0.101-2.11,0.266-1.783,1.782c3.771,0.336,4.838-4.036,9.805-0.892c-1.85,0.526-3.039,1.715-3.565,3.565
	c0.695,0.196,1.037,0.747,0.891,1.782c18.86,6.424,39.304-9.156,34.764-28.523c-0.29,1.899-3.888-0.144-4.457-0.891
	c1.799-5.287-1.563-5.974,0-12.479c-1.485,0-2.971,0-4.457,0c-0.445,4.012-0.601,8.313-4.457,8.914
	c0.003-0.895-0.722-1.062-0.891-1.783c2.844-5.146,1.694-7.539,1.783-12.479c-5.506-2.336-9.86-3.809-16.045-3.565
	c0.15,2.017-4.286,3.92-1.783,5.349c2.556-1.349,2.688,8.29-2.674,8.022c-1.131-4.103,1.621-4.322,2.674-6.24
	c-3.056,0.905-1.775-7.042-4.457-3.565c2.508,3.44-0.087,9.392-2.674,10.697c-4.382-2.869,2.461-11.324-5.348-12.479
	c-3.334,3.511-1.616,16.789-8.914,13.37c2.066-5.608-0.082-4.518,2.674-8.913c-5.464-0.225-8.921,5.312-5.348,8.913
	c-1.572-1.65-2.761,0.23-3.566,1.783c1.333,0.151,3.29-0.319,3.566,0.892c-0.274,4.182-2.696,6.217-2.674,10.696
	c1.9,2.767,5.735,5.595,4.457,8.914C345.904,940.467,346.247,948.889,351.822,947.421z M397.282,911.766
	c-0.54-2.134-1.282-4.066-0.891-7.131c-1.189,0-2.377,0-3.565,0C393.107,908.215,394.436,910.749,397.282,911.766z M326.864,911.766
	c-0.009,2.368,0.337,5.09-0.891,6.239c3.107-1.597,4.803-3.232,3.565-7.131c0.691-0.199,1.758-0.023,1.783-0.892
	C327.951,908.693,329.611,912.433,326.864,911.766z"/>
<path fill-rule="evenodd" clip-rule="evenodd" d="M881.413,840.783c1.393-2.454-0.916-5.244,3.564-7.131
	c0.898,6.738-1.547,20.078-8.021,27.631c-5.758,6.719-16.029,9.53-21.393,16.045c-2.666,3.237-2.303,6.661-7.131,8.022
	c-6.855,1.934-15.68-0.917-19.609-5.349c-2.213-1.156-4.326,1.989-4.457,0c-4.408-2.628-7.268-5.871-9.805-6.239
	c-1.648-0.84-0.547,5.102-1.783,1.782c-1.975,0.899,2.195,3.069,0.891,6.24c-3.594,2.056-8.199,2.684-10.695-0.892
	c-19.619,3.795-19.238-21.062-16.045-28.522c4.986-3.332,12.824-3.814,16.045-8.914c-2.473-1.093-4.17-2.962-6.24-4.457
	c-4.605-0.148-3.682,5.233-8.021,5.349c0.328-1.517-0.695-1.683-1.783-1.783c1.285-1.982,2.238-4.298,1.783-8.022
	c-7.158,5.326-20.812,5.531-24.959-8.022c-2.82,0.146-2.979-2.37-6.24-1.782c-4.602-6.034-4.9-13.712,0-19.61
	c7.188-8.65,37.133-11.728,54.373-17.827c4.541-12.617,13.854-21.296,30.309-24.067c6.223,10.372-5.193,41.051,16.936,37.438
	c0.869,0.912,1.762,1.804,2.674,2.674c4.395-2.14,9.123-3.949,14.262-5.348c16.346,6.923,10.908,24.033-0.893,32.98
	c1.168,2.102,2.756,3.782,4.457,5.349C877.712,838.392,878.124,838.277,881.413,840.783z M839.519,768.582
	c-1.139-0.05-1.234-1.143-2.674-0.892c-14.316,4.998-20.322,18.305-28.523,29.415c1.932,5.874-6.393,8.744-2.674,12.479
	c1.848-4.391,6.635-2.821,8.021-8.914c9.305-1.156,11.582-16.897,21.393-20.501c0.793,1.585,2.49,2.266,1.783,5.348
	C843.786,783.905,840.753,773.761,839.519,768.582z M827.931,795.323c-2.182,4.056-7.568,4.91-9.805,8.913
	c6.42,0.068,12.557-7.126,19.611-7.131c0.887-2.056,1.557-6.229-0.893-10.696c-1.807,4.38-1.223-1.706-3.564-1.783
	C831.622,787.957,823.728,794.462,827.931,795.323z M779.798,803.345c-4.316-6.771-32.998,10.955-18.719,16.937
	c-2.178-0.568-0.135-4.167,0.891-4.457c2.068-0.285,3.422,0.144,4.457,0.892c4.002-5.49,6.24-10.074,12.479-11.588
	c-5.02,5.608-9.631,11.425-10.695,18.719c7.637,8.503,12.258,2.865,19.609,7.131c2.494-3.463,8.285-8.335,6.24-13.37
	c-0.049,0.938-1.143,0.701-0.893-0.892c-4.682-0.48-11.205,4.536-14.262,0c2.291-0.086,1.275-3.479,3.566-3.565
	c3.918,0.597,9.188-1.046,11.588-4.457c4.377,5.755,12.41-9.257,10.695-15.153C799.069,796.862,785.745,797.604,779.798,803.345z
	 M842.194,803.345c-9.467-4.905-14.186,6.085-16.045,13.371c8.926-2.958,13.072-10.697,22.283-13.371
	c-1.471-0.014-0.5-2.472-1.783-2.674C845.659,804.05,843.122,800.349,842.194,803.345z M873.39,822.064
	c2.906-3.109-0.516,3.211,3.566,2.674c8.385-5.896,3.643-14.85-1.783-20.502c-5.914,0.325-10.666,1.812-15.152,3.565
	c0.512,1.567-1.078,5.237,0.893,5.349c0.049-0.938,1.141-0.702,0.891,0.892c1.752,0.266,1.768-1.204,2.674-1.783
	c3.434,3.416,7.422,3.621,8.912,6.239C874.616,820.529,871.093,821.849,873.39,822.064z M846.649,808.693
	c0.695,0.197,1.035,0.747,0.893,1.783c1.049,0.139,2.529-0.153,2.674,0.891c-0.545,0.051-1.055,0.134-0.891,0.892
	c3.645,0.512,0.48-7.498,3.564-2.674c1.555-1.817-0.664-1.748,0.893-3.565C851.024,808.524,848.255,805.717,846.649,808.693z
	 M809.212,830.086c-1.73-7.488,8.727-14.957,8.914-20.501c-8.219,8.773-23.162,7.845-24.959,25.85
	c4.635-0.739,8.842,3.38,12.48,6.239c2.635-2.771,0.123-10.542,1.783-13.37C807.894,828.647,808.749,832.634,809.212,830.086z
	 M813.669,836.326c1.887-1.086,2.59-3.354,5.35-3.565c-0.152,2.521,0.766,6.114-1.783,6.239c0.129-5.822-2.945,0.368-4.457,0.892
	c1.037,0.148,0.967,1.409,0.891,2.674c3.324,0.947,1.412-3.343,4.457-2.674c-1.826,5.22,0.268,24.273,8.023,18.719
	c0.125,3.438,3.012,4.118,2.674,8.021c3.189-0.728,4.424,1.896,2.674,3.565c3.074-2.597,4.818,2.318,7.131,2.674
	c-0.629-0.097,13.568-0.048,13.371,0c7.986-1.967,5.201-8.499,8.021-16.935c1.582,1.686,0.65,5.886,0.893,8.912
	c6.293-6.778,9.383-16.761,12.477-26.74c-0.361-1.718-3.455-0.704-2.672-3.565c1.271,0.213,1.502,1.468,2.672,1.783
	c-3.129-6.073-6.295-5.04-11.586-10.696c-0.049-1.534,0.686-2.285,1.783-2.675c2.82,0.194,7.062,3.572,9.803,0.892
	c-4.365-0.387-5.777-3.729-8.021-6.239c-0.139,1.049,0.154,2.53-0.891,2.674c-3.682-8.522-22.916,0.759-24.066-7.131
	c-3.988,9.682-17.945,9.392-20.502,20.502c-2.043-5.535,5.09-9.01,4.457-16.045c-1.4-0.085-3.092,0.119-2.674-1.783
	c0.494,0.002,1.01-0.722,0-0.892C818.341,821.484,811.013,825.562,813.669,836.326z M816.343,871.089
	c-3.332-2.539-5.93-8.787-9.805-8.022c3.689-2.517-1.566-8.268-2.674-11.587c-12.004,1.153-18.916,7.771-14.262,22.283
	c5.352,3.12,17.893,7.573,19.609-1.783C811.188,875.949,814.177,870.269,816.343,871.089z M843.085,878.22
	c2.422,0.95,4.174,0.566,5.348-1.783C845.872,876.252,843.905,876.663,843.085,878.22z"/>
<path fill-rule="evenodd" clip-rule="evenodd" d="M513.972,869.802c2.217-2.598,3.791-17.564,12.479-16.937
	c2.184,0.158,5.246,1.652,6.24,6.24c3.342-3.771,9.002-3.274,12.479-2.674c1.398,4.876,9.352,10.017,14.262,14.262
	c1.412,18.777,4.354,32.27,7.131,45.459c1.6,0.113,1.881-1.092,3.566-0.892c-4.557,4.953-8.207,8.154-13.371,4.457
	c5.025,13.091,18.326,22.585,17.828,41.895c9.777-2.687,13.449-16.786,3.564-21.393c0.625-2.744,0.625-1.713,0-4.457
	c14.641,2.182,11.867,25.177,0.893,30.307c-10.998,3.86-12.631,17.082-24.959,19.61c-1.002,0.805,0.057,1.993-1.783,3.565
	c-32.137,7.276-36.67-12.096-51.699-26.741c-0.076-1.265-0.146-2.524,0.891-2.675c-0.214-1.567-1.533-2.031-3.565-1.782
	c2.297-3.169-2.165-5.74-3.565-8.022c8.638-12.509,16.966-28.474,14.263-41.003c1.85-2.607,2.004-6.908,4.457-8.913
	C510.544,892.673,520.591,881.386,513.972,869.802z M522.886,866.236c3.916-3.247,7.129-3.74,5.348-7.131
	c-1.705,1.379-3.189,0.661-4.457-0.892C522.413,859.769,518.956,864.821,522.886,866.236z M524.669,873.367
	c-2.994,7.506-7.865,25.557-7.131,35.654c3.703-4.149,7.666-2.51,13.369-4.457c0.34-10.493-0.936-15.521,1.783-26.74
	C530.634,875.72,528.507,873.688,524.669,873.367z M541.603,876.933c1.104,8.774,1.246,18.883,0.893,26.74
	c2.6,0.968,5.27,1.86,6.24,4.457c-1.973,0.704-2.23,3.119-3.566,4.457c5.568,0.969,9.299,3.775,14.262,5.348
	c2.611-11.884-3.424-30.887-5.348-44.567C549.423,874.057,543.839,873.819,541.603,876.933z M529.124,917.044
	c5.355-0.082,3.758-7.992,8.914-3.565C536.708,907.519,529.407,913.623,529.124,917.044z M514.864,919.718
	c3.395,1.08,11.354-5.102,10.695-8.022C520.112,913.231,516.911,913.646,514.864,919.718z M532.69,925.957
	c-7.408,0.976-11.785,3.231-13.371,11.588c8.051,1.511,13.275-5.21,17.828-1.782c1.346-3.543,12.371-3.721,15.152,0
	c1.32-2.908-5.01-2.576-1.783-4.457c1.268,0.6,2.754,5.453,4.457,2.674c-1.711-3.34-7.23-2.871-9.805-5.348
	c-0.951,0.831-0.277,3.287-2.674,2.674C538.788,928.937,534.696,927.896,532.69,925.957z M508.624,941.11
	c4.619-1.241,4.576-6.362,4.457-8.913C511.329,934.901,508.864,936.895,508.624,941.11z M560.323,947.351
	c-4.328-18.217-51.525-10.034-47.242,12.479c-2.656,1.282-0.059,2.247-1.783,4.457c7.262,18.06,38.641,27.534,50.807,10.696
	c3.715-5.139,5.338-15.59,0-20.501c0.262-0.547,2.219-3.432,0-3.565c-0.213,1.368-1.467,0.131-1.781-0.892
	C565.339,950.063,560.702,948.944,560.323,947.351z M505.058,954.481c0.234-3.801-1.795-5.336-2.674-8.022
	c0.199,1.686-1.005,1.966-0.892,3.565C504.792,949.398,503.03,953.835,505.058,954.481z"/>
<path fill-rule="evenodd" clip-rule="evenodd" d="M700.466,869.306c0.17-1.011,0.895-0.494,0.891,0
	c4.406,0.563,10.168-2.864,16.045-6.239c5.232,2.194,10.139-2.501,15.154,0c8.6,4.292,3.883,21.49,8.912,30.307
	c18.314,7.872,6.107,34.592-8.912,37.438c0.318,25.159-11.752,45.084-38.33,48.134c-12.449-0.793-21.785-10.353-32.088-16.044
	c-1.479-5.354-5.35-8.318-6.24-14.263c-5.088-0.281-5.389-8.005-9.805-6.239c-0.719-3.905-5.512-5.731-5.348-12.479
	c0.188-7.78,7.207-13.025,12.479-16.936c0.396-2.265-4.656-3.548-5.35-1.783c-1.889-3.16-2.84-7.262-6.238-8.913
	c0.385-7.375-4.494-13.008-2.674-19.61c1.781-6.46,13.799-18.141,24.066-18.719c1.934-0.108,3.289,1.629,5.348,1.782
	c10.207,0.763,22.238-9.411,30.307-1.782c-6.09,0.647-6.875,1.387-11.588,2.674c-0.934,2.521,1.473,6.115,0,6.239
	c1.988,1.281,4.119,2.418,6.24,3.565C696.251,875.166,700.438,870.505,700.466,869.306z M671.05,951.312
	c0.818,5.673,3.816,0.348,6.24,0c6.32,3.766,11.34,2.602,17.828,3.565c-3.428,2.268-12.76,2.812-16.045,0
	c13.602,13.442,56.986-6.183,44.568-30.307c0.625-2.743,0.625-1.714,0-4.457c-2.07-2.366-2.387,2.365-4.457,0
	c0-2.378,0-4.754,0-7.131c-4.105-4.489-7.666-4.618-9.805-11.588c-0.139,1.049,0.152,2.53-0.891,2.674
	c-1.021-2.599-1.35-5.271,0.891-6.239c2.48,2.399,4.912,0.213,6.24,2.674c3.619-3.213,8.6-5.066,11.588-8.914
	c-0.99,2.799-0.418,2.355,0.891,4.457c4.568-2.015,5.98,1.807,8.914,0c-4.475-1.942,0.066-16.978-6.24-13.37
	c0.855-6.799-4.467-7.419-5.348-12.479c-9.92-3.586-21.504,2.233-23.176,8.914c-2.322-1.973-5.984,2.297-5.348,6.239
	c10.412,5.572,16.096-5.58,24.066-8.022c1.336,5.963-7.066,9.449-11.588,12.479c-1.273,3.88,3.047,4.098,0.891,6.239
	c2.225,0.636,3.664-3.923,5.35-0.892c-5.113,2.098-11.471,0.445-13.371,7.132c1.049,0.139,2.529-0.153,2.674,0.891
	c-3.703,0.123-0.18,0.588,0,1.783c-2.896,2.165-5.615,0.459-7.131,2.674c-0.109-3.301-1.297-2.242-3.566-1.782
	c-0.162,3.417,0.73,0.322,2.676,0.891c-0.201,1.686,1.004,1.967,0.891,3.565c-3.834-1.413-7.365-2.499-10.697,0
	c-0.016-1.304,3.76-2.825,0-2.674c-0.326,2.053-3.902,0.853-3.564,3.565c3.018,0.094,10.309,1.646,12.479,5.349
	c-0.332,2.933-7.641,2.374-7.131-0.892c-4.145,2.394-8.523,4.55-15.152,4.457c-0.781,4.154,2.311-1.228,2.674,1.782
	c-1.545,4.044-13.531,9.751-7.131,10.697c-3.154,3.086-4.6,7.881-6.24,12.479c6.83-0.59,9.154,3.323,11.588,7.131
	C673.063,952.271,671.843,952.006,671.05,951.312z M669.269,951.312c0.361-4.443-3.113-6.202-4.457-4.457
	C667.384,947.254,666.919,950.69,669.269,951.312z M655.007,897.83c4.938-1.996-0.646-14.143,9.805-12.479
	c-2.906,1.652-3.777,8.16-0.893,10.696c0.1-2.276,2.984-1.768,5.35-1.782c-1.273,1.971,0.842,2.231,0.891,3.565
	c1.379-2.781,7.617-0.703,7.131-5.349c-2.066-3.46-5.947-3.073-10.695-5.349c-1.652-1.571,0.229-2.76,1.781-3.565
	c6.773,0.809,18.568,8.35,17.828-0.891c-4.09-0.526-9.162-2.586-14.262-5.349c2.367-0.901,5.07-1.465,5.348-4.457
	c-18.041-1.122-22.908,11.612-27.633,25.85c2.488,0.783,4.404,2.135,7.131,2.675C658.56,895.814,657.966,898.682,655.007,897.83z
	 M648.767,889.808c1.297-4.646,4.191-7.693,5.348-12.479c-1.486,0-2.971,0-4.457,0C647.788,879.421,646.036,888.771,648.767,889.808
	z M682.638,896.047c1.18,0.011,0.816,1.562,1.783,1.783c1.463-3.108,4.592,0.62,6.24-2.675
	C686.886,894.327,684.837,893.767,682.638,896.047z M731.665,903.178c-0.504,2.171-0.764,4.585-3.566,4.457
	c-0.123-3.702-0.588-0.181-1.783,0c-0.605-3.353-2.613-4.202-7.131-4.457c6.027,6.615,7.217,19.181,10.697,25.851
	c1.266-4.145,3.359-11.656,0-15.154c0.773-1.304,1.334-2.824,3.564-2.674c-1.508,4.579,2.229,8.671-0.891,12.479
	c9.221,0.234,15.084-7.293,12.479-18.719c-3.797-0.957-6.637-2.87-11.588-2.674C733.579,906.024,732.985,904.434,731.665,903.178z
	 M679.964,910.309c0.434-1.586,0.951,0.388,1.783,0.892c0.279-1.206,1.268-1.703,0.891-3.565
	C680.378,906.691,677.558,909.512,679.964,910.309z M661.245,910.309c0.168,3.878,1.551,1.623,4.457,1.783
	c-0.648-2.432,1.771-1.794,1.783-3.565C663.62,908.521,665.433,909.832,661.245,910.309z M648.767,927.245
	c2.193,1.386,2.621-3.027,0.891-2.674c-1.4,0.678-1.332,2.828-3.564,2.674c-1.498,5.703,3.76,7.806,0,10.696
	c7.006,1.999,2.613-0.259,8.021,1.783c0.762-2.841-0.775-3.385-1.783-4.457c1.242-1.135,0.389-4.367,2.676-4.457
	c2.045,2.526-1.924,5.895,1.781,7.131c-0.525-3.795,0.641-5.896,0.893-8.913C652.899,929.415,654.712,929.04,648.767,927.245z
	 M658.571,933.484c-0.613,3.585,0.854,5.09,0.891,8.022c3.871-2.735,3.707-5.156,5.35-8.913
	C663.038,930.807,660.567,932.873,658.571,933.484z M681.747,964.683c8.889,4.097,20.82,9.37,30.307,4.457
	c1.59-0.824,2.66-5.268,4.457-7.131c0.406-0.424,1.574,1.155,1.783,0.892c4.395-5.6,8.451-14.784,8.914-20.502
	C720.833,959.426,695.86,962.783,681.747,964.683z"/>
<path fill-rule="evenodd" clip-rule="evenodd" d="M532.69,977.657c1.137-4.015-4.666-6.653-8.914-8.022
	c1.246-2.319,1.77-5.362,2.674-8.022c0.457,9.05,8.633,10.382,12.479,16.045C536.62,974.952,535.616,976.745,532.69,977.657z"/>
<path fill-rule="evenodd" clip-rule="evenodd" d="M558.739,50.141c-0.76,0.163-0.842-0.349-0.893-0.892
	c-0.83,1.614,8.316,1.125,10.697,4.457c-1.609,1.917-2.529,3.152,1.781,2.674c-3.984,2.114-1.566,5.091-6.238,6.24
	c2.08-6.596-5.824-6-7.131-11.588c-2.334,3.829-3.975-4.928-4.457,0c-1.76-0.704-3.205-3.118-1.783-4.457
	c-5.135-0.879-6.734-0.971-11.588,0c1.408-2.517-1.025-3.786,0.891-6.24c3.434,1.147,5.906-1.363,6.24,3.566
	c4.01-0.468,7.365,1.507,12.48,1.783C558.114,48.427,558.114,47.396,558.739,50.141z"/>
<path fill-rule="evenodd" clip-rule="evenodd" d="M630.938,100.948c4.457,0.544,9.299-4.518,7.131-11.588
	c-1.385-1.289-2.387-2.961-4.455-3.565c2.465-2.911-0.693-5.909-3.566-6.24c0.953-2.929,7.119,0.471,6.24,2.674
	c1.035-0.749,2.389-1.176,4.457-0.892c-0.996,1.097-0.777,1.831,0.891,1.783c0.137,2.217-1.4,2.76-1.783,4.457
	c4.605,0.648,10.631,4.023,14.262,6.24c4.164-1.936,3.877-2.781,7.131-5.349c3.004,4.18,12.184-1.609,15.154,0
	c5.455-5.131,12.244-13.05,11.588-21.393c2.756,0.083,2.656-2.692,2.674-5.348c3.434,2.438-2.191,7.427,1.783,10.697
	c-0.145,1.044-1.627,0.751-2.676,0.891c3.234,3.416-1.764,5.163-0.891,12.479c-1.439,0.251-1.533-0.843-2.674-0.892
	c1.42,3.161,1.48,3.062,3.564,6.24c-1.826,0.846-3.156,2.192-3.564,4.457c5.383,0.306,6.068-7.749,11.588-9.805
	c2.756,1.26-4.115,4.784,0.891,5.348c-0.275,1.21-2.23,0.739-3.564,0.891c0.383,1.4,2.803,0.762,1.783,3.566
	c5.936-0.569,7.279-1.186,15.152-2.674c-0.109,3.302-1.297,2.243-3.564,1.783c1.965,14.408-12.473,28.384-24.068,35.655
	c-5.725,1.704-13.307,1.55-16.936,5.348c-3.564-1.983-7.621-1.137-8.914-3.564c-1.625,3.496-4.33,0.363-7.131,0
	c1.611-1.874-1.361-4.568-1.783-7.131c-1.771,1.484-1.133-0.081-3.564,0c-1.799,1.173-3.018,2.926-3.566,5.348
	c-5.926-1.502-7.381-7.476-13.369-8.914c0.65-10.344-9.922-18.351-6.24-25.85c-5.842-6.319-8.014-26.399,3.566-32.98
	c0.113-1.599-1.092-1.88-0.893-3.565c2.52,0.736,2.309-1.256,4.457-0.892c-0.998,1.284-0.961,2.174,0.891,2.674
	c1.373-0.472,0.057-0.931-0.891-0.892c1.402-0.678,1.332-2.828,3.566-2.674c0.25,1.439-0.844,1.535-0.893,2.674
	c2.27-0.109,3.457-1.298,3.566-3.565c2.258,2.404,0.701,3.46,1.781,6.24c-5.105,1.271-6.869,9.795-3.564,14.262
	c-2.068,0.283-3.422-0.144-4.457-0.892c0-2.377,0-4.755,0-7.131c-10.875,1.414-1.252,10.85-5.348,15.153
	C625.815,90.039,630.503,97.209,630.938,100.948z M668.376,102.731c2.73-2.717-1.973-2.551-2.674-4.457
	c-1.188,3.582-5.982-0.722-8.914-0.891c-0.496,1.818-2.682,1.748-0.891,3.565c1.752,0.266,1.768-1.204,2.674-1.783
	c1.693,2.231-0.738,3.5,0.891,6.24c10.285,1.363,20.475-2.098,19.611-8.914c-0.568,3.238-4.168-2.068-4.457,0.892
	C675.812,98.926,670.12,101.167,668.376,102.731z M679.073,102.731c3.355,1.866,4.701-1.212,6.24-3.565
	C681.935,99.054,682.157,102.547,679.073,102.731z M640.745,113.427c1.863,1.404,1.566,4.969,3.564,6.24
	c2.314-0.658,3.016-2.927,5.348-3.565c-0.271,2.351,1.861,2.299,3.566,2.674c1.059-3.398,2.369-6.544,3.564-9.805
	c-3.693,0.129-4.186-2.946-6.238-4.457c-4.736,4.089-6.564-7.053-11.588-2.674C640.396,105.963,643.64,109.797,640.745,113.427z
	 M686.204,113.427c1.707-3.344,6.236-3.866,7.131-8.022C689.198,105.75,684.798,110.504,686.204,113.427z M696.901,108.079
	c0.15,1.333-0.32,3.29,0.891,3.565c-0.273-2.056,2.574-0.99,2.674-2.674c-1.178-0.011-0.814-1.562-1.783-1.783
	C698.485,107.882,697.937,108.224,696.901,108.079z M656.788,123.232c0-0.595,0-1.189,0-1.783c2.863,2.387,4.139-3.052,7.131-0.891
	c0.568-3.497,4.457-5.32,6.24-9.805c-3.084,0.316-4.744,1.042-7.131-0.892c0.195-1.121,1.389-1.822-0.891-1.783
	c-2.484,5.951,0.443,7.247-5.35,10.696C657.948,120.989,654.175,122.474,656.788,123.232z M676.399,126.798
	c7.924-3.098,18.104-7.025,18.719-16.044C693.085,120.308,680.726,119.537,676.399,126.798z"/>
<path fill-rule="evenodd" clip-rule="evenodd" d="M511.495,67.968c-2.135,2.746-4.057,1.068-2.674,6.24
	c-3.332-1.975-11.3-2.942-9.804-8.914c3.642-0.517,7.511-0.808,8.914-3.566C510.95,62.438,507.47,66.932,511.495,67.968z"/>
<path fill-rule="evenodd" clip-rule="evenodd" d="M435.73,73.316c2.234,4.065-1.38,8.215-4.457,11.587
	c3.978,1.958-2.005,4.359,0.892,8.022c-3.181-2.851-4.208,3.609-6.24,5.348c-1.482,1.27-4.389,0.987-6.24,2.674
	c-3.889,3.545-8.225,7.648-14.262,10.696c1.97,4.319-4.246,8.962,0,13.371c-0.144,1.044-1.625,0.752-2.674,0.892
	c2.524,6.336-2.03,10.252-4.457,16.044c2.721,0.054,1.283,2.769,0.891,1.783c1.213,3.054,8.744,2.195,11.588-1.783
	c3.587-5.017,1.244-15.486,4.457-17.827c4.491-0.907,5.76-5.492,5.348-8.914c2.72,0.38,3.106,5.629,0.891,8.914
	c-1.439,0.25-1.535-0.843-2.674-0.892c4.882,2.521-3.483,7.321,0.891,8.914c-2.555,0.967-3.239,2.419-1.783,5.348
	c-5.06,0.719-6.636,10.672-8.914,16.936c-4.632,2.499-7.705,6.556-10.696,10.696c-1.312-3.713,3.654-8.807,5.348-12.479
	c-0.383-1.399-2.804-0.762-1.783-3.565c-1.816,0.051-5.37,2.837-5.348,1.783c-1.056,0.984-1.557,7.146-5.349,8.022
	c2.521,5.725-3.785,17.733-8.913,10.697c3.806-6.891,3.47-17.922,12.479-19.61c-6.997-8.926,10.77-19.408,4.457-27.632
	c1.827-4.812,4.147-10.498,0-15.154c3.222,0.844,1.243-3.51,1.783-5.348c2.565-1.594,6.613-1.706,9.805-2.674
	c-0.464,1.319-1.319,2.247-1.783,3.565c3.635-1.12,3.823-5.685,6.24-8.022c11.667-1.01,9.258-14.016,11.588-20.501
	c-2.409-3.668-5.674-5.535-5.349-9.805c-2.894,0.516-4.147-0.607-6.239-0.892c0-1.486,0-2.972,0-4.457
	c2.657,3.284,8.282,3.603,11.588,6.24c0.364,2.147-1.628,1.937-0.892,4.457c1.189,1.782,5.826,0.116,4.457,4.457
	C434.273,74.644,432.278,71.46,435.73,73.316z"/>
<path fill-rule="evenodd" clip-rule="evenodd" d="M898.788,186.802c-2.051-0.852-4.006,1.219-5.912-2.101
	c5.178-1.347,15.832-0.717,22.355,3.615c5.799,3.854,8.98,11.606,14.582,15.17c2.783,1.772,5.424,1.16,6.951,4.8
	c2.168,5.171,0.787,12.337-2.297,15.831c-0.689,1.838,1.969,3.188,0.428,3.481c-1.631,3.695-3.889,6.24-3.932,8.257
	c-0.5,1.369,4.037-0.063,1.562,1.221c0.891,1.456,2.188-2.009,4.789-1.295c1.951,2.61,2.883,6.148,0.33,8.441
	c4.846,14.959-14.607,17.046-20.742,15.269c-3.078-3.577-4.207-9.652-8.5-11.677c-0.615,2.036-1.914,3.541-2.883,5.301
	c0.326,3.611,4.441,2.373,4.947,5.753c-1.217-0.11-1.248,0.705-1.223,1.563c-1.672-0.813-3.57-1.336-6.436-0.623
	c4.846,5.079,6.316,15.726-3.873,20.264c0.385,2.189-1.562,2.554-0.795,5.045c-4.271,4.174-10.238,5.145-15.314,1.881
	c-7.447-4.784-12.725-27.879-19.143-40.76c-10.291-2.336-17.963-8.778-21.707-21.364c7.506-5.856,32.562,0.116,27.617-16.821
	c0.629-0.767,1.24-1.549,1.834-2.345c-2.096-3.228-3.961-6.747-5.547-10.626c3.84-13.431,17.727-10.826,25.848-2.468
	c1.527-1.113,2.689-2.514,3.748-3.995C897.276,189.922,897.147,189.613,898.788,186.802z M846.413,226.453
	c0.07,0.895-0.775,1.073-0.439,2.174c5.275,10.702,16.246,14.117,25.711,19.458c4.402-2.073,7.443,4.154,10.004,0.891
	c-3.605-1.022-2.84-4.912-7.732-5.41c-1.795-7.156-14.309-7.426-18.064-14.743c1.162-0.771,1.529-2.162,4.006-1.906
	C857.972,221.651,850.339,224.992,846.413,226.453z M868.411,232.938c3.379,1.317,4.562,5.44,7.902,6.803
	c-0.562-5.021-6.77-9.124-7.451-14.632c-1.691-0.497-5.016-0.62-8.268,1.722c3.594,0.99-1.215,1.12-1.053,2.956
	C862.304,230.761,868.142,236.304,868.411,232.938z M879.296,269.766c-4.875,4.021,11.723,24.724,15.023,12.996
	c-0.234,1.756-3.24,0.505-3.566-0.268c-0.422-1.587-0.215-2.688,0.27-3.567c-4.672-2.6-8.467-3.907-10.25-8.636
	c4.863,3.384,9.85,6.427,15.648,6.56c5.908-6.781,1.061-9.851,3.689-16.002c-2.945-1.616-7.307-5.671-11.045-3.59
	c0.738-0.052,0.66,0.825-0.609,0.781c0.074,3.705,4.621,8.316,1.369,11.14c-0.289-1.781-2.84-0.662-3.127-2.443
	c0.09-3.119-1.699-7.075-4.594-8.623c4.076-3.972-8.422-8.806-12.863-6.902C872.382,255.334,874.239,265.671,879.296,269.766z
	 M873.31,221.028c-2.924,7.864,6.113,10.496,11.982,11.25c-3.168-6.689-9.609-9.185-12.582-16.123
	c0.131,1.15-1.883,0.627-1.918,1.649C873.528,218.254,870.88,220.59,873.31,221.028z M884.937,194.864
	c-2.705-1.969,2.559,0.096,1.746-3.041c-5.408-5.983-11.947-1.421-15.842,3.359c0.822,4.589,2.439,8.158,4.24,11.494
	c1.174-0.551,4.191,0.339,4.092-1.21c-0.736,0.052-0.658-0.824,0.609-0.782c0.041-1.394-1.109-1.265-1.648-1.917
	c2.338-3.011,2.115-6.146,4.018-7.562C883.622,194.055,884.989,196.68,884.937,194.864z M877.06,217.034
	c0.086-0.561,0.482-0.88,1.307-0.867c0.008-0.833-0.363-1.961,0.439-2.174c0.092,0.42,0.205,0.812,0.783,0.61
	c0.047-2.897-5.904,0.344-2.434-2.528c-1.568-1.041-1.301,0.687-2.869-0.354C876.507,213.633,874.579,216.067,877.06,217.034z
	 M897.36,244.224c-5.684,2.069-12.52-5.381-16.869-4.996c7.643,5.579,8.35,17.339,22.586,17.014
	c-1.021-3.548,1.791-7.229,3.678-10.346c-2.418-1.792-8.248,0.916-10.615-0.109C896.364,245.392,899.394,244.341,897.36,244.224z
	 M901.806,240.144c-1.027-1.369-2.867-1.7-3.297-3.835c1.984-0.123,4.701-1.185,5.045,0.794c-4.561,0.458,0.568,2.265,1.123,3.396
	c0.018-0.826,1.008-0.891,2.004-0.953c0.42-2.688-2.746-0.781-2.516-3.224c4.252,0.925,18.936-2.538,13.852-8.062
	c2.674-0.429,2.928-2.748,6.008-2.858c-0.875-2.423,1.059-3.638,2.529-2.431c-2.324-2.151,1.348-3.986,1.404-5.826
	c-0.016,0.499-1.34-10.594-1.283-10.444c-2.303-6.05-7.139-3.247-13.998-4.642c1.166-1.396,4.537-1.072,6.877-1.551
	c-5.898-4.267-13.992-5.723-22.084-7.183c-1.307,0.448-0.219,2.768-2.529,2.432c0.045-1.014,1.002-1.315,1.137-2.259
	c-4.443,3.027-3.332,5.401-7.242,10.077c-1.193,0.185-1.854-0.317-2.26-1.136c-0.119-2.222,2.111-5.861-0.246-7.745
	c0.117,3.449-2.359,4.872-4.104,6.865c0.832,0.008,1.963-0.362,2.176,0.439c-6.305,3.693,2.791,17.827-3.262,19.483
	c7.943,2.185,9.059,13.114,17.98,14.047c-4.129,2.126-7.525-3.111-12.959-1.942c0.066,1.103,0.389,2.404-1.139,2.26
	c-0.045-0.387-0.66-0.721-0.695,0.085C889.767,237.92,893.653,243.251,901.806,240.144z M928.704,234.72
	c-1.664,2.847-6.295,5.475-5.326,8.429c-2.32-2.64-6.309,2.017-8.795,3.201c2.053,9.265,7.887,14.03,18.775,9.002
	c1.924-4.479,4.199-14.704-3.275-15.147C932.993,238.279,928.271,236.491,928.704,234.72z M931.708,213.149
	c0.51-1.983,0.041-3.316-1.904-4.007C929.903,211.161,930.413,212.658,931.708,213.149z"/>
</svg>
